<svg version="1.1" viewBox="0.0 0.0 577.1679790026246 253.6482939632546" fill="none" stroke="none" stroke-linecap="square" stroke-miterlimit="10" xmlns:xlink="http://www.w3.org/1999/xlink" xmlns="http://www.w3.org/2000/svg"><clipPath id="p.0"><path d="m0 0l577.16797 0l0 253.6483l-577.16797 0l0 -253.6483z" clip-rule="nonzero"/></clipPath><g clip-path="url(#p.0)"><path fill="#000000" fill-opacity="0.0" d="m0 0l577.16797 0l0 253.6483l-577.16797 0z" fill-rule="evenodd"/><path fill="#d9ead3" d="m75.18898 33.779526l105.19685 0l0 63.90551l-105.19685 0z" fill-rule="evenodd"/><path stroke="#38761d" stroke-width="1.0" stroke-linejoin="round" stroke-linecap="butt" d="m75.18898 33.779526l105.19685 0l0 63.90551l-105.19685 0z" fill-rule="evenodd"/><path fill="#efefef" d="m220.86613 35.65354l74.99214 0l0 60.15748l-74.99214 0z" fill-rule="evenodd"/><path stroke="#000000" stroke-width="1.0" stroke-linejoin="round" stroke-linecap="butt" d="m220.86613 35.65354l74.99214 0l0 60.15748l-74.99214 0z" fill-rule="evenodd"/><path fill="#efefef" d="m220.86613 155.44882l74.99214 0l0 60.15747l-74.99214 0z" fill-rule="evenodd"/><path stroke="#000000" stroke-width="1.0" stroke-linejoin="round" stroke-linecap="butt" d="m220.86613 155.44882l74.99214 0l0 60.15747l-74.99214 0z" fill-rule="evenodd"/><path fill="#f4cccc" d="m75.18898 155.07874l105.19685 0l0 63.905518l-105.19685 0z" fill-rule="evenodd"/><path stroke="#990000" stroke-width="1.0" stroke-linejoin="round" stroke-linecap="butt" d="m75.18898 155.07874l105.19685 0l0 63.905518l-105.19685 0z" fill-rule="evenodd"/><path fill="#efefef" d="m17.84252 139.1181l29.35433 0l0 92.81891l-29.35433 0z" fill-rule="evenodd"/><path stroke="#000000" stroke-width="1.0" stroke-linejoin="round" stroke-linecap="butt" d="m17.84252 139.1181l29.35433 0l0 92.81891l-29.35433 0z" fill-rule="evenodd"/><path fill="#000000" fill-opacity="0.0" d="m15.9921255 235.92126l0 -100.7874l33.03937 0l0 100.7874z" fill-rule="evenodd"/><path fill="#000000" d="m36.512127 224.9797l-8.59375 0l0 -3.65625q0 -1.375 0.234375 -2.0q0.234375 -0.625 0.828125 -1.0q0.59375 -0.375 1.34375 -0.375q0.96875 0 1.609375 0.578125q0.625 0.5625 0.78125 1.6875q0.328125 -0.5625 0.734375 -0.921875q0.390625 -0.375 1.390625 -0.984375l1.671875 -1.0625l0 2.078125l-1.875 1.25q-1.0 0.671875 -1.25 0.921875q-0.265625 0.25 -0.359375 0.53125q-0.109375 0.265625 -0.109375 0.859375l0 0.359375l3.59375 0l0 1.734375zm-4.953125 -1.734375l0 -1.28125q0 -1.25 -0.109375 -1.5625q-0.109375 -0.3125 -0.359375 -0.484375q-0.265625 -0.1875 -0.65625 -0.1875q-0.421875 0 -0.6875 0.234375q-0.265625 0.234375 -0.34375 0.65625q-0.03125 0.21875 -0.03125 1.265625l0 1.359375l2.1875 0zm0.625 -8.150391l-0.265625 1.5q-0.90625 -0.25 -1.328125 -0.859375q-0.4375 -0.625 -0.4375 -1.84375q0 -1.09375 0.265625 -1.625q0.25 -0.546875 0.65625 -0.765625q0.390625 -0.21875 1.46875 -0.21875l1.921875 0.015625q0.828125 0 1.21875 -0.078125q0.375 -0.078125 0.828125 -0.296875l0 1.625q-0.171875 0.0625 -0.484375 0.15625q-0.15625 0.046875 -0.203125 0.0625q0.421875 0.421875 0.625 0.90625q0.203125 0.46875 0.203125 1.015625q0 0.96875 -0.515625 1.53125q-0.53125 0.546875 -1.328125 0.546875q-0.53125 0 -0.9375 -0.25q-0.40625 -0.265625 -0.625 -0.71875q-0.234375 -0.453125 -0.390625 -1.3125q-0.21875 -1.140625 -0.40625 -1.59375l-0.15625 0q-0.484375 0 -0.6875 0.234375q-0.203125 0.234375 -0.203125 0.890625q0 0.4375 0.171875 0.6875q0.171875 0.234375 0.609375 0.390625zm1.34375 -2.203125q0.09375 0.3125 0.25 1.0q0.140625 0.6875 0.28125 0.90625q0.234375 0.3125 0.578125 0.3125q0.34375 0 0.609375 -0.25q0.25 -0.265625 0.25 -0.65625q0 -0.453125 -0.296875 -0.859375q-0.21875 -0.296875 -0.546875 -0.390625q-0.203125 -0.0625 -0.796875 -0.0625l-0.328125 0zm2.984375 -8.892578l0 1.640625l-3.171875 0q-1.015625 0 -1.3125 0.109375q-0.296875 0.09375 -0.453125 0.34375q-0.171875 0.234375 -0.171875 0.5625q0 0.4375 0.234375 0.78125q0.234375 0.328125 0.625 0.453125q0.390625 0.125 1.4375 0.125l2.8125 0l0 1.65625l-6.21875 0l0 -1.53125l0.90625 0q-1.046875 -0.8125 -1.046875 -2.0625q0 -0.53125 0.203125 -0.984375q0.1875 -0.453125 0.5 -0.6875q0.296875 -0.234375 0.6875 -0.3125q0.375 -0.09375 1.09375 -0.09375l3.875 0zm0 -7.376953l0 1.515625l-0.921875 0q0.546875 0.390625 0.8125 0.90625q0.25 0.515625 0.25 1.046875q0 1.078125 -0.859375 1.84375q-0.875 0.75 -2.421875 0.75q-1.578125 0 -2.390625 -0.734375q-0.828125 -0.75 -0.828125 -1.890625q0 -1.03125 0.859375 -1.796875l-3.09375 0l0 -1.640625l8.59375 0zm-3.25 4.390625q1.0 0 1.4375 -0.28125q0.65625 -0.390625 0.65625 -1.109375q0 -0.5625 -0.484375 -0.953125q-0.484375 -0.40625 -1.453125 -0.40625q-1.0625 0 -1.53125 0.390625q-0.484375 0.375 -0.484375 0.984375q0 0.578125 0.46875 0.984375q0.46875 0.390625 1.390625 0.390625zm0.046875 -5.642578q-0.8125 0 -1.578125 -0.40625q-0.78125 -0.40625 -1.171875 -1.140625q-0.40625 -0.734375 -0.40625 -1.65625q0 -1.40625 0.921875 -2.3125q0.90625 -0.90625 2.3125 -0.90625q1.40625 0 2.34375 0.921875q0.921875 0.90625 0.921875 2.28125q0 0.859375 -0.390625 1.640625q-0.390625 0.765625 -1.125 1.171875q-0.75 0.40625 -1.828125 0.40625zm0.09375 -1.6875q0.921875 0 1.421875 -0.4375q0.484375 -0.4375 0.484375 -1.078125q0 -0.65625 -0.484375 -1.078125q-0.5 -0.4375 -1.4375 -0.4375q-0.90625 0 -1.390625 0.4375q-0.5 0.421875 -0.5 1.078125q0 0.640625 0.5 1.078125q0.484375 0.4375 1.40625 0.4375zm-3.109375 -5.892578l0 -1.515625l0.84375 0q-0.984375 -0.828125 -0.984375 -1.953125q0 -0.59375 0.25 -1.03125q0.234375 -0.4375 0.734375 -0.71875q-0.5 -0.40625 -0.734375 -0.875q-0.25 -0.484375 -0.25 -1.03125q0 -0.671875 0.28125 -1.140625q0.265625 -0.484375 0.8125 -0.71875q0.390625 -0.171875 1.28125 -0.171875l3.984375 0l0 1.640625l-3.5625 0q-0.921875 0 -1.1875 0.171875q-0.359375 0.234375 -0.359375 0.703125q0 0.34375 0.21875 0.65625q0.203125 0.296875 0.609375 0.4375q0.40625 0.140625 1.296875 0.140625l2.984375 0l0 1.640625l-3.40625 0q-0.90625 0 -1.171875 0.09375q-0.265625 0.078125 -0.390625 0.265625q-0.140625 0.1875 -0.140625 0.5q0 0.375 0.21875 0.6875q0.203125 0.296875 0.59375 0.4375q0.375 0.125 1.265625 0.125l3.03125 0l0 1.65625l-6.21875 0zm-0.84375 -14.128906l-1.53125 0l0 -1.65625l1.53125 0l0 1.65625zm7.0625 0l-6.21875 0l0 -1.65625l6.21875 0l0 1.65625zm0 -8.990234l0 1.640625l-3.171875 0q-1.015625 0 -1.3125 0.109375q-0.296875 0.09375 -0.453125 0.34375q-0.171875 0.234375 -0.171875 0.5625q0 0.4375 0.234375 0.78125q0.234375 0.328125 0.625 0.453125q0.390625 0.125 1.4375 0.125l2.8125 0l0 1.65625l-6.21875 0l0 -1.53125l0.90625 0q-1.046875 -0.8125 -1.046875 -2.0625q0 -0.53125 0.203125 -0.984375q0.1875 -0.453125 0.5 -0.6875q0.296875 -0.234375 0.6875 -0.3125q0.375 -0.09375 1.09375 -0.09375l3.875 0zm-6.21875 -1.6269531l0 -1.53125l0.90625 0q-0.46875 -0.3125 -0.75 -0.8125q-0.296875 -0.515625 -0.296875 -1.140625q0 -1.078125 0.84375 -1.828125q0.84375 -0.765625 2.375 -0.765625q1.546875 0 2.421875 0.765625q0.859375 0.765625 0.859375 1.84375q0 0.515625 -0.203125 0.9375q-0.203125 0.421875 -0.703125 0.875l3.140625 0l0 1.65625l-8.59375 0zm3.0 -1.625q1.046875 0 1.546875 -0.421875q0.5 -0.421875 0.5 -1.015625q0 -0.578125 -0.453125 -0.953125q-0.46875 -0.375 -1.515625 -0.375q-0.96875 0 -1.4375 0.390625q-0.484375 0.390625 -0.484375 0.96875q0 0.609375 0.46875 1.015625q0.46875 0.390625 1.375 0.390625zm3.21875 -9.845703l-0.9375 0q0.5 0.328125 0.796875 0.890625q0.28125 0.546875 0.28125 1.171875q0 0.625 -0.265625 1.125q-0.28125 0.5 -0.78125 0.71875q-0.5 0.21875 -1.375 0.21875l-3.9375 0l0 -1.640625l2.859375 0q1.3125 0 1.609375 -0.09375q0.296875 -0.09375 0.46875 -0.328125q0.171875 -0.25 0.171875 -0.609375q0 -0.421875 -0.234375 -0.75q-0.234375 -0.34375 -0.578125 -0.46875q-0.34375 -0.125 -1.671875 -0.125l-2.625 0l0 -1.640625l6.21875 0l0 1.53125zm-6.21875 -6.095703l1.3125 0l0 1.125l2.5 0q0.765625 0 0.890625 -0.03125q0.125 -0.03125 0.21875 -0.140625q0.078125 -0.125 0.078125 -0.28125q0 -0.234375 -0.171875 -0.65625l1.28125 -0.140625q0.25 0.5625 0.25 1.296875q0 0.4375 -0.140625 0.796875q-0.15625 0.359375 -0.390625 0.53125q-0.25 0.15625 -0.640625 0.234375q-0.296875 0.046875 -1.171875 0.046875l-2.703125 0l0 0.75l-1.3125 0l0 -0.75l-1.234375 0l-0.96875 -1.65625l2.203125 0l0 -1.125z" fill-rule="nonzero"/><path fill="#c9daf8" d="m345.84778 93.66929l105.19684 0l0 63.90551l-105.19684 0z" fill-rule="evenodd"/><path stroke="#0b5394" stroke-width="1.0" stroke-linejoin="round" stroke-linecap="butt" d="m345.84778 93.66929l105.19684 0l0 63.90551l-105.19684 0z" fill-rule="evenodd"/><path fill="#efefef" d="m501.03674 16.0l47.84253 0l0 99.46457l-47.84253 0z" fill-rule="evenodd"/><path stroke="#000000" stroke-width="1.0" stroke-linejoin="round" stroke-linecap="butt" d="m501.03674 16.0l47.84253 0l0 99.46457l-47.84253 0z" fill-rule="evenodd"/><path fill="#000000" fill-opacity="0.0" d="m180.38583 65.732285l40.472427 0" fill-rule="evenodd"/><path stroke="#000000" stroke-width="1.0" stroke-linejoin="round" stroke-linecap="butt" d="m180.38583 65.732285l34.472427 0" fill-rule="evenodd"/><path fill="#000000" stroke="#000000" stroke-width="1.0" stroke-linecap="butt" d="m214.85826 67.38402l4.538101 -1.6517334l-4.538101 -1.6517334z" fill-rule="evenodd"/><path fill="#000000" fill-opacity="0.0" d="m180.38583 187.0315l40.472427 -1.5118103" fill-rule="evenodd"/><path stroke="#000000" stroke-width="1.0" stroke-linejoin="round" stroke-linecap="butt" d="m180.38583 187.0315l34.476624 -1.287857" fill-rule="evenodd"/><path fill="#000000" stroke="#000000" stroke-width="1.0" stroke-linecap="butt" d="m214.9241 187.39424l4.473282 -1.8199921l-4.596588 -1.4811707z" fill-rule="evenodd"/><path fill="#000000" fill-opacity="0.0" d="m49.031498 185.52756l26.17323 1.5118103" fill-rule="evenodd"/><path stroke="#000000" stroke-width="1.0" stroke-linejoin="round" stroke-linecap="butt" d="m49.031498 185.52756l20.183216 1.1658325" fill-rule="evenodd"/><path fill="#000000" stroke="#000000" stroke-width="1.0" stroke-linecap="butt" d="m69.11946 188.34236l4.6257935 -1.3872986l-4.435295 -1.910675z" fill-rule="evenodd"/><path fill="#000000" fill-opacity="0.0" d="m295.85828 65.732285l49.984253 59.90551" fill-rule="evenodd"/><path stroke="#000000" stroke-width="1.0" stroke-linejoin="round" stroke-linecap="butt" d="m295.85828 65.732285l46.14029 55.29857" fill-rule="evenodd"/><path fill="#000000" stroke="#000000" stroke-width="1.0" stroke-linecap="butt" d="m340.73032 122.08905l4.1756287 2.426262l-1.6391602 -4.5426636z" fill-rule="evenodd"/><path fill="#000000" fill-opacity="0.0" d="m295.85828 185.52756l49.984253 -59.90551" fill-rule="evenodd"/><path stroke="#000000" stroke-width="1.0" stroke-linejoin="round" stroke-linecap="butt" d="m295.85828 185.52756l46.14029 -55.29857" fill-rule="evenodd"/><path fill="#000000" stroke="#000000" stroke-width="1.0" stroke-linecap="butt" d="m343.26678 131.28719l1.6391602 -4.542656l-4.1756287 2.426262z" fill-rule="evenodd"/><path fill="#000000" fill-opacity="0.0" d="m451.04462 125.62205l49.984253 -59.90551" fill-rule="evenodd"/><path stroke="#000000" stroke-width="1.0" stroke-linejoin="round" stroke-linecap="butt" d="m451.04462 125.62205l46.14029 -55.29857" fill-rule="evenodd"/><path fill="#000000" stroke="#000000" stroke-width="1.0" stroke-linecap="butt" d="m498.45316 71.38168l1.6391296 -4.5426636l-4.1756287 2.426262z" fill-rule="evenodd"/><path fill="#000000" fill-opacity="0.0" d="m451.04462 125.62205l48.094482 59.90551" fill-rule="evenodd"/><path stroke="#000000" stroke-width="1.0" stroke-linejoin="round" stroke-linecap="butt" d="m451.04462 125.62205l44.338226 55.226784" fill-rule="evenodd"/><path fill="#000000" stroke="#000000" stroke-width="1.0" stroke-linecap="butt" d="m494.09485 181.88289l4.129059 2.5046997l-1.5530701 -4.572815z" fill-rule="evenodd"/><path fill="#000000" fill-opacity="0.0" d="m86.59055 46.425198l82.3937 0l0 38.61417l-82.3937 0z" fill-rule="evenodd"/><path fill="#000000" d="m97.47144 69.47228l0 -7.625l3.234375 0q1.234375 0 1.78125 0.203125q0.5625 0.203125 0.890625 0.734375q0.328125 0.515625 0.328125 1.203125q0 0.859375 -0.5 1.421875q-0.5 0.546875 -1.515625 0.703125q0.5 0.28125 0.828125 0.640625q0.328125 0.34375 0.875 1.234375l0.9375 1.484375l-1.84375 0l-1.109375 -1.65625q-0.59375 -0.890625 -0.8125 -1.125q-0.21875 -0.234375 -0.46875 -0.3125q-0.25 -0.09375 -0.765625 -0.09375l-0.3125 0l0 3.1875l-1.546875 0zm1.546875 -4.40625l1.125 0q1.109375 0 1.390625 -0.09375q0.28125 -0.09375 0.4375 -0.3125q0.15625 -0.234375 0.15625 -0.578125q0 -0.390625 -0.21875 -0.625q-0.203125 -0.234375 -0.578125 -0.296875q-0.1875 -0.03125 -1.125 -0.03125l-1.1875 0l0 1.9375zm9.336227 2.640625l1.453125 0.25q-0.28125 0.796875 -0.890625 1.21875q-0.609375 0.421875 -1.515625 0.421875q-1.4375 0 -2.125 -0.9375q-0.546875 -0.765625 -0.546875 -1.90625q0 -1.375 0.71875 -2.15625q0.71875 -0.78125 1.8125 -0.78125q1.234375 0 1.9375 0.828125q0.71875 0.8125 0.6875 2.484375l-3.65625 0q0.015625 0.65625 0.34375 1.015625q0.34375 0.359375 0.84375 0.359375q0.34375 0 0.578125 -0.1875q0.234375 -0.1875 0.359375 -0.609375zm0.078125 -1.46875q-0.015625 -0.640625 -0.328125 -0.96875q-0.3125 -0.328125 -0.765625 -0.328125q-0.46875 0 -0.78125 0.34375q-0.3125 0.359375 -0.3125 0.953125l2.1875 0zm3.7389984 -0.609375l-1.328125 -0.234375q0.21875 -0.796875 0.765625 -1.1875q0.546875 -0.390625 1.625 -0.390625q0.984375 0 1.453125 0.234375q0.484375 0.234375 0.671875 0.59375q0.203125 0.359375 0.203125 1.3125l-0.015625 1.703125q0 0.71875 0.0625 1.078125q0.078125 0.34375 0.265625 0.734375l-1.4375 0q-0.0625 -0.140625 -0.140625 -0.4375q-0.046875 -0.125 -0.0625 -0.171875q-0.375 0.375 -0.796875 0.5625q-0.421875 0.171875 -0.90625 0.171875q-0.859375 0 -1.359375 -0.453125q-0.484375 -0.46875 -0.484375 -1.1875q0 -0.46875 0.21875 -0.828125q0.234375 -0.359375 0.640625 -0.546875q0.40625 -0.203125 1.15625 -0.359375q1.03125 -0.1875 1.421875 -0.359375l0 -0.140625q0 -0.421875 -0.21875 -0.59375q-0.203125 -0.1875 -0.78125 -0.1875q-0.375 0 -0.59375 0.15625q-0.21875 0.15625 -0.359375 0.53125zm1.953125 1.1875q-0.28125 0.09375 -0.890625 0.234375q-0.609375 0.125 -0.796875 0.25q-0.28125 0.203125 -0.28125 0.515625q0 0.296875 0.21875 0.53125q0.234375 0.21875 0.59375 0.21875q0.390625 0 0.75 -0.265625q0.265625 -0.1875 0.34375 -0.484375q0.0625 -0.1875 0.0625 -0.703125l0 -0.296875zm2.8796234 2.65625l0 -7.625l1.46875 0l0 7.625l-1.46875 0zm5.921295 -6.28125l0 -1.34375l1.46875 0l0 1.34375l-1.46875 0zm0 6.28125l0 -5.53125l1.46875 0l0 5.53125l-1.46875 0zm2.8512726 -5.53125l1.34375 0l0 0.765625q0.71875 -0.890625 1.7187576 -0.890625q0.53125 0 0.921875 0.21875q0.390625 0.21875 0.640625 0.671875q0.375 -0.453125 0.796875 -0.671875q0.421875 -0.21875 0.890625 -0.21875q0.609375 0 1.03125 0.25q0.421875 0.25 0.625 0.734375q0.15625 0.34375 0.15625 1.140625l0 3.53125l-1.453125 0l0 -3.15625q0 -0.828125 -0.15625 -1.0625q-0.203125 -0.3125 -0.625 -0.3125q-0.3125 0 -0.578125 0.1875q-0.265625 0.1875 -0.390625 0.546875q-0.125 0.359375 -0.125 1.140625l0 2.65625l-1.453125 0l0 -3.03125q0 -0.796875 -0.078125 -1.03125q-0.078125 -0.234375 -0.25 -0.34375q-0.15625 -0.125 -0.4375 -0.125q-0.34375 0 -0.6093826 0.1875q-0.265625 0.171875 -0.390625 0.515625q-0.109375 0.34375 -0.109375 1.140625l0 2.6875l-1.46875 0l0 -5.53125zm10.678246 1.6875l-1.328125 -0.234375q0.21875 -0.796875 0.765625 -1.1875q0.546875 -0.390625 1.625 -0.390625q0.984375 0 1.453125 0.234375q0.484375 0.234375 0.671875 0.59375q0.203125 0.359375 0.203125 1.3125l-0.015625 1.703125q0 0.71875 0.0625 1.078125q0.078125 0.34375 0.265625 0.734375l-1.4375 0q-0.0625 -0.140625 -0.140625 -0.4375q-0.046875 -0.125 -0.0625 -0.171875q-0.375 0.375 -0.796875 0.5625q-0.421875 0.171875 -0.90625 0.171875q-0.859375 0 -1.359375 -0.453125q-0.484375 -0.46875 -0.484375 -1.1875q0 -0.46875 0.21875 -0.828125q0.234375 -0.359375 0.640625 -0.546875q0.40625 -0.203125 1.15625 -0.359375q1.03125 -0.1875 1.421875 -0.359375l0 -0.140625q0 -0.421875 -0.21875 -0.59375q-0.203125 -0.1875 -0.78125 -0.1875q-0.375 0 -0.59375 0.15625q-0.21875 0.15625 -0.359375 0.53125zm1.953125 1.1875q-0.28125 0.09375 -0.890625 0.234375q-0.609375 0.125 -0.796875 0.25q-0.28125 0.203125 -0.28125 0.515625q0 0.296875 0.21875 0.53125q0.234375 0.21875 0.59375 0.21875q0.390625 0 0.75 -0.265625q0.265625 -0.1875 0.34375 -0.484375q0.0625 -0.1875 0.0625 -0.703125l0 -0.296875zm2.7389984 3.015625l1.671875 0.203125q0.046875 0.296875 0.203125 0.40625q0.203125 0.15625 0.640625 0.15625q0.578125 0 0.859375 -0.171875q0.203125 -0.109375 0.296875 -0.375q0.0625 -0.171875 0.0625 -0.671875l0 -0.796875q-0.65625 0.890625 -1.65625 0.890625q-1.109375 0 -1.75 -0.9375q-0.515625 -0.75 -0.515625 -1.859375q0 -1.390625 0.671875 -2.125q0.671875 -0.734375 1.65625 -0.734375q1.03125 0 1.6875 0.90625l0 -0.78125l1.375 0l0 4.96875q0 0.96875 -0.171875 1.453125q-0.15625 0.484375 -0.453125 0.765625q-0.28125 0.28125 -0.765625 0.4375q-0.484375 0.15625 -1.234375 0.15625q-1.40625 0 -2.0 -0.484375q-0.578125 -0.484375 -0.578125 -1.21875q0 -0.078125 0 -0.1875zm1.3125 -3.234375q0 0.875 0.34375 1.28125q0.34375 0.40625 0.828125 0.40625q0.546875 0 0.90625 -0.40625q0.375 -0.421875 0.375 -1.25q0 -0.859375 -0.359375 -1.265625q-0.34375 -0.421875 -0.890625 -0.421875q-0.515625 0 -0.859375 0.40625q-0.34375 0.40625 -0.34375 1.25zm8.540497 1.109375l1.453125 0.25q-0.28125 0.796875 -0.890625 1.21875q-0.609375 0.421875 -1.5156097 0.421875q-1.4375 0 -2.125 -0.9375q-0.546875 -0.765625 -0.546875 -1.90625q0 -1.375 0.71875 -2.15625q0.71875 -0.78125 1.8125 -0.78125q1.2343597 0 1.9374847 0.828125q0.71875 0.8125 0.6875 2.484375l-3.6562347 0q0.015625 0.65625 0.34375 1.015625q0.34375 0.359375 0.84375 0.359375q0.34375 0 0.57810974 -0.1875q0.234375 -0.1875 0.359375 -0.609375zm0.078125 -1.46875q-0.015625 -0.640625 -0.328125 -0.96875q-0.31248474 -0.328125 -0.76560974 -0.328125q-0.46875 0 -0.78125 0.34375q-0.3125 0.359375 -0.3125 0.953125l2.1874847 0zm2.1296234 1.65625l1.46875 -0.21875q0.09375 0.421875 0.375 0.640625q0.296875 0.21875 0.796875 0.21875q0.578125 0 0.859375 -0.203125q0.1875 -0.140625 0.1875 -0.390625q0 -0.171875 -0.09375 -0.28125q-0.109375 -0.09375 -0.5 -0.1875q-1.765625 -0.390625 -2.234375 -0.703125q-0.65625 -0.453125 -0.65625 -1.25q0 -0.71875 0.5625 -1.203125q0.578125 -0.5 1.765625 -0.5q1.125 0 1.671875 0.375q0.5625 0.375 0.765625 1.09375l-1.375 0.25q-0.09375 -0.3125 -0.34375 -0.484375q-0.234375 -0.171875 -0.703125 -0.171875q-0.5625 0 -0.8125 0.15625q-0.171875 0.109375 -0.171875 0.296875q0 0.15625 0.140625 0.265625q0.203125 0.140625 1.359375 0.40625q1.171875 0.265625 1.640625 0.65625q0.453125 0.390625 0.453125 1.078125q0 0.765625 -0.640625 1.3125q-0.625 0.546875 -1.875 0.546875q-1.125 0 -1.78125 -0.453125q-0.65625 -0.46875 -0.859375 -1.25z" fill-rule="nonzero"/><path fill="#000000" fill-opacity="0.0" d="m90.19948 169.77953l79.433075 0l0 31.496063l-79.433075 0z" fill-rule="evenodd"/><path fill="#000000" d="m108.77944 186.22266l0 -1.296875l3.3125 0l0 3.046875q-0.484375 0.46875 -1.40625 0.828125q-0.90625 0.34375 -1.859375 0.34375q-1.1875 0 -2.078125 -0.5q-0.890625 -0.5 -1.34375 -1.421875q-0.4375 -0.9375 -0.4375 -2.046875q0 -1.1875 0.5 -2.109375q0.5 -0.9375 1.453125 -1.421875q0.734375 -0.390625 1.828125 -0.390625q1.421875 0 2.21875 0.609375q0.796875 0.59375 1.03125 1.640625l-1.53125 0.28125q-0.15625 -0.5625 -0.609375 -0.875q-0.4375 -0.328125 -1.109375 -0.328125q-1.015625 0 -1.609375 0.640625q-0.59375 0.640625 -0.59375 1.890625q0 1.359375 0.59375 2.046875q0.609375 0.671875 1.59375 0.671875q0.484375 0 0.96875 -0.1875q0.484375 -0.1875 0.84375 -0.46875l0 -0.953125l-1.765625 0zm7.9293976 1.03125l1.453125 0.25q-0.28125 0.796875 -0.890625 1.21875q-0.609375 0.421875 -1.515625 0.421875q-1.4375 0 -2.125 -0.9375q-0.546875 -0.765625 -0.546875 -1.90625q0 -1.375 0.71875 -2.15625q0.71875 -0.78125 1.8125 -0.78125q1.234375 0 1.9375 0.828125q0.71875 0.8125 0.6875 2.484375l-3.65625 0q0.015625 0.65625 0.34375 1.015625q0.34375 0.359375 0.84375 0.359375q0.34375 0 0.578125 -0.1875q0.234375 -0.1875 0.359375 -0.609375zm0.078125 -1.46875q-0.015625 -0.640625 -0.328125 -0.96875q-0.3125 -0.328125 -0.765625 -0.328125q-0.46875 0 -0.78125 0.34375q-0.3125 0.359375 -0.3125 0.953125l2.1875 0zm7.676506 3.234375l-1.46875 0l0 -2.8125q0 -0.90625 -0.09375 -1.15625q-0.09375 -0.265625 -0.3125 -0.40625q-0.203125 -0.15625 -0.5000076 -0.15625q-0.375 0 -0.6875 0.21875q-0.296875 0.203125 -0.40625 0.546875q-0.109375 0.34375 -0.109375 1.265625l0 2.5l-1.46875 0l0 -5.53125l1.359375 0l0 0.8125q0.71875 -0.9375 1.8281326 -0.9375q0.484375 0 0.875 0.1875q0.40625 0.171875 0.609375 0.4375q0.203125 0.265625 0.28125 0.609375q0.09375 0.34375 0.09375 0.984375l0 3.4375zm4.681137 -1.765625l1.453125 0.25q-0.28125 0.796875 -0.890625 1.21875q-0.609375 0.421875 -1.515625 0.421875q-1.4375 0 -2.125 -0.9375q-0.546875 -0.765625 -0.546875 -1.90625q0 -1.375 0.71875 -2.15625q0.71875 -0.78125 1.8125 -0.78125q1.234375 0 1.9375 0.828125q0.71875 0.8125 0.6875 2.484375l-3.65625 0q0.015625 0.65625 0.34375 1.015625q0.34375 0.359375 0.84375 0.359375q0.34375 0 0.578125 -0.1875q0.234375 -0.1875 0.359375 -0.609375zm0.078125 -1.46875q-0.015625 -0.640625 -0.328125 -0.96875q-0.3125 -0.328125 -0.765625 -0.328125q-0.46875 0 -0.78125 0.34375q-0.3125 0.359375 -0.3125 0.953125l2.1875 0zm4.0514984 3.234375l-1.46875 0l0 -5.53125l1.359375 0l0 0.796875q0.34375 -0.5625 0.625 -0.734375q0.28125 -0.1875 0.625 -0.1875q0.5 0 0.96875 0.28125l-0.453125 1.28125q-0.375 -0.25 -0.6875 -0.25q-0.3125 0 -0.53125 0.171875q-0.203125 0.171875 -0.328125 0.625q-0.109375 0.4375 -0.109375 1.84375l0 1.703125zm3.834488 -3.84375l-1.328125 -0.234375q0.21875 -0.796875 0.765625 -1.1875q0.546875 -0.390625 1.625 -0.390625q0.984375 0 1.453125 0.234375q0.484375 0.234375 0.671875 0.59375q0.203125 0.359375 0.203125 1.3125l-0.015625 1.703125q0 0.71875 0.0625 1.078125q0.078125 0.34375 0.265625 0.734375l-1.4375 0q-0.0625 -0.140625 -0.140625 -0.4375q-0.046875 -0.125 -0.0625 -0.171875q-0.375 0.375 -0.796875 0.5625q-0.421875 0.171875 -0.90625 0.171875q-0.859375 0 -1.359375 -0.453125q-0.484375 -0.46875 -0.484375 -1.1875q0 -0.46875 0.21875 -0.828125q0.234375 -0.359375 0.640625 -0.546875q0.40625 -0.203125 1.15625 -0.359375q1.03125 -0.1875 1.421875 -0.359375l0 -0.140625q0 -0.421875 -0.21875 -0.59375q-0.203125 -0.1875 -0.78125 -0.1875q-0.375 0 -0.59375 0.15625q-0.21875 0.15625 -0.359375 0.53125zm1.953125 1.1875q-0.28125 0.09375 -0.890625 0.234375q-0.609375 0.125 -0.796875 0.25q-0.28125 0.203125 -0.28125 0.515625q0 0.296875 0.21875 0.53125q0.234375 0.21875 0.59375 0.21875q0.390625 0 0.75 -0.265625q0.265625 -0.1875 0.34375 -0.484375q0.0625 -0.1875 0.0625 -0.703125l0 -0.296875zm5.4108734 -2.875l0 1.171875l-1.0 0l0 2.21875q0 0.6875 0.03125 0.796875q0.03125 0.109375 0.125 0.1875q0.109375 0.0625 0.25 0.0625q0.203125 0 0.59375 -0.140625l0.125 1.140625q-0.515625 0.21875 -1.15625 0.21875q-0.390625 0 -0.71875 -0.125q-0.3125 -0.140625 -0.46875 -0.34375q-0.140625 -0.21875 -0.203125 -0.578125q-0.046875 -0.25 -0.046875 -1.03125l0 -2.40625l-0.671875 0l0 -1.171875l0.671875 0l0 -1.09375l1.46875 -0.859375l0 1.953125l1.0 0zm0.6736145 2.6875q0 -0.71875 0.359375 -1.40625q0.359375 -0.6875 1.015625 -1.046875q0.671875 -0.359375 1.46875 -0.359375q1.265625 0 2.0625 0.828125q0.796875 0.8125 0.796875 2.046875q0 1.25 -0.8125 2.078125q-0.796875 0.828125 -2.03125 0.828125q-0.75 0 -1.453125 -0.34375q-0.6875 -0.34375 -1.046875 -1.0q-0.359375 -0.671875 -0.359375 -1.625zm1.5 0.078125q0 0.828125 0.390625 1.265625q0.390625 0.4375 0.96875 0.4375q0.5625 0 0.953125 -0.4375q0.390625 -0.4375 0.390625 -1.265625q0 -0.8125 -0.390625 -1.25q-0.390625 -0.4375 -0.953125 -0.4375q-0.578125 0 -0.96875 0.4375q-0.390625 0.4375 -0.390625 1.25zm6.759262 2.765625l-1.46875 0l0 -5.53125l1.359375 0l0 0.796875q0.34375 -0.5625 0.625 -0.734375q0.28125 -0.1875 0.625 -0.1875q0.5 0 0.96875 0.28125l-0.453125 1.28125q-0.375 -0.25 -0.6875 -0.25q-0.3125 0 -0.53125 0.171875q-0.203125 0.171875 -0.328125 0.625q-0.109375 0.4375 -0.109375 1.84375l0 1.703125z" fill-rule="nonzero"/><path fill="#000000" fill-opacity="0.0" d="m218.64568 167.72441l79.43306 0l0 38.614166l-79.43306 0z" fill-rule="evenodd"/><path fill="#000000" d="m239.8 184.48004l1.5 -0.140625q0.125 0.75 0.53125 1.109375q0.421875 0.34375 1.125 0.34375q0.75 0 1.125 -0.3125q0.375 -0.3125 0.375 -0.734375q0 -0.265625 -0.15625 -0.453125q-0.15625 -0.1875 -0.5625 -0.328125q-0.265625 -0.09375 -1.234375 -0.34375q-1.234375 -0.296875 -1.734375 -0.75q-0.703125 -0.625 -0.703125 -1.53125q0 -0.59375 0.328125 -1.09375q0.34375 -0.515625 0.953125 -0.78125q0.625 -0.265625 1.5 -0.265625q1.4375 0 2.15625 0.640625q0.734375 0.625 0.78125 1.671875l-1.546875 0.078125q-0.09375 -0.59375 -0.421875 -0.84375q-0.328125 -0.265625 -0.984375 -0.265625q-0.671875 0 -1.046875 0.28125q-0.234375 0.171875 -0.234375 0.46875q0 0.265625 0.21875 0.46875q0.296875 0.234375 1.421875 0.5q1.125 0.265625 1.65625 0.5625q0.546875 0.28125 0.84375 0.78125q0.3125 0.484375 0.3125 1.203125q0 0.65625 -0.375 1.234375q-0.359375 0.5625 -1.03125 0.84375q-0.65625 0.28125 -1.65625 0.28125q-1.4375 0 -2.21875 -0.671875q-0.78125 -0.671875 -0.921875 -1.953125zm8.5763855 -1.359375l-1.328125 -0.234375q0.21875 -0.796875 0.765625 -1.1875q0.546875 -0.390625 1.625 -0.390625q0.984375 0 1.453125 0.234375q0.484375 0.234375 0.671875 0.59375q0.203125 0.359375 0.203125 1.3125l-0.015625 1.703125q0 0.71875 0.0625 1.078125q0.078125 0.34375 0.265625 0.734375l-1.4375 0q-0.0625 -0.140625 -0.140625 -0.4375q-0.046875 -0.125 -0.0625 -0.171875q-0.375 0.375 -0.796875 0.5625q-0.421875 0.171875 -0.90625 0.171875q-0.859375 0 -1.359375 -0.453125q-0.484375 -0.46875 -0.484375 -1.1875q0 -0.46875 0.21875 -0.828125q0.234375 -0.359375 0.640625 -0.546875q0.40625 -0.203125 1.15625 -0.359375q1.03125 -0.1875 1.421875 -0.359375l0 -0.140625q0 -0.421875 -0.21875 -0.59375q-0.203125 -0.1875 -0.78125 -0.1875q-0.375 0 -0.59375 0.15625q-0.21875 0.15625 -0.359375 0.53125zm1.953125 1.1875q-0.28125 0.09375 -0.890625 0.234375q-0.609375 0.125 -0.796875 0.25q-0.28125 0.203125 -0.28125 0.515625q0 0.296875 0.21875 0.53125q0.234375 0.21875 0.59375 0.21875q0.390625 0 0.75 -0.265625q0.265625 -0.1875 0.34375 -0.484375q0.0625 -0.1875 0.0625 -0.703125l0 -0.296875zm2.7702484 -2.875l1.34375 0l0 0.765625q0.71875 -0.890625 1.71875 -0.890625q0.53125 0 0.921875 0.21875q0.390625 0.21875 0.640625 0.671875q0.375 -0.453125 0.796875 -0.671875q0.421875 -0.21875 0.890625 -0.21875q0.609375 0 1.03125 0.25q0.421875 0.25 0.625 0.734375q0.15625 0.34375 0.15625 1.140625l0 3.53125l-1.453125 0l0 -3.15625q0 -0.828125 -0.15625 -1.0625q-0.203125 -0.3125 -0.625 -0.3125q-0.3125 0 -0.578125 0.1875q-0.265625 0.1875 -0.390625 0.546875q-0.125 0.359375 -0.125 1.140625l0 2.65625l-1.453125 0l0 -3.03125q0 -0.796875 -0.078125 -1.03125q-0.078125 -0.234375 -0.25 -0.34375q-0.15625 -0.125 -0.4375 -0.125q-0.34375 0 -0.609375 0.1875q-0.265625 0.171875 -0.390625 0.515625q-0.109375 0.34375 -0.109375 1.140625l0 2.6875l-1.46875 0l0 -5.53125zm9.537628 0l1.375 0l0 0.8125q0.265625 -0.40625 0.703125 -0.671875q0.453125 -0.265625 1.015625 -0.265625q0.953125 0 1.625 0.765625q0.671875 0.75 0.671875 2.09375q0 1.390625 -0.671875 2.15625q-0.671875 0.765625 -1.640625 0.765625q-0.453125 0 -0.828125 -0.171875q-0.375 -0.1875 -0.78125 -0.640625l0 2.796875l-1.46875 0l0 -7.640625zm1.453125 2.671875q0 0.9375 0.359375 1.390625q0.375 0.4375 0.90625 0.4375q0.515625 0 0.84375 -0.40625q0.34375 -0.421875 0.34375 -1.34375q0 -0.875 -0.359375 -1.296875q-0.34375 -0.421875 -0.859375 -0.421875q-0.53125 0 -0.890625 0.421875q-0.34375 0.40625 -0.34375 1.21875zm5.102997 2.859375l0 -7.625l1.46875 0l0 7.625l-1.46875 0zm6.163788 -1.765625l1.453125 0.25q-0.28125 0.796875 -0.890625 1.21875q-0.609375 0.421875 -1.515625 0.421875q-1.4375 0 -2.125 -0.9375q-0.546875 -0.765625 -0.546875 -1.90625q0 -1.375 0.71875 -2.15625q0.71875 -0.78125 1.8125 -0.78125q1.234375 0 1.9375 0.828125q0.71875 0.8125 0.6875 2.484375l-3.65625 0q0.015625 0.65625 0.34375 1.015625q0.34375 0.359375 0.84375 0.359375q0.34375 0 0.578125 -0.1875q0.234375 -0.1875 0.359375 -0.609375zm0.078125 -1.46875q-0.015625 -0.640625 -0.328125 -0.96875q-0.3125 -0.328125 -0.765625 -0.328125q-0.46875 0 -0.78125 0.34375q-0.3125 0.359375 -0.3125 0.953125l2.1875 0z" fill-rule="nonzero"/><path fill="#000000" fill-opacity="0.0" d="m218.64568 46.425198l79.43306 0l0 38.61417l-79.43306 0z" fill-rule="evenodd"/><path fill="#000000" d="m239.8 63.18082l1.5 -0.140625q0.125 0.75 0.53125 1.1093788q0.421875 0.34375 1.125 0.34375q0.75 0 1.125 -0.3125q0.375 -0.3125038 0.375 -0.7343788q0 -0.265625 -0.15625 -0.453125q-0.15625 -0.1875 -0.5625 -0.328125q-0.265625 -0.09375 -1.234375 -0.34375q-1.234375 -0.296875 -1.734375 -0.75q-0.703125 -0.625 -0.703125 -1.53125q0 -0.59375 0.328125 -1.09375q0.34375 -0.515625 0.953125 -0.78125q0.625 -0.265625 1.5 -0.265625q1.4375 0 2.15625 0.640625q0.734375 0.625 0.78125 1.671875l-1.546875 0.078125q-0.09375 -0.59375 -0.421875 -0.84375q-0.328125 -0.265625 -0.984375 -0.265625q-0.671875 0 -1.046875 0.28125q-0.234375 0.171875 -0.234375 0.46875q0 0.265625 0.21875 0.46875q0.296875 0.234375 1.421875 0.5q1.125 0.265625 1.65625 0.5625q0.546875 0.28125 0.84375 0.78125q0.3125 0.484375 0.3125 1.203125q0 0.6562538 -0.375 1.2343788q-0.359375 0.5625 -1.03125 0.84375q-0.65625 0.28125 -1.65625 0.28125q-1.4375 0 -2.21875 -0.671875q-0.78125 -0.671875 -0.921875 -1.9531288zm8.5763855 -1.359375l-1.328125 -0.234375q0.21875 -0.796875 0.765625 -1.1875q0.546875 -0.390625 1.625 -0.390625q0.984375 0 1.453125 0.234375q0.484375 0.234375 0.671875 0.59375q0.203125 0.359375 0.203125 1.3125l-0.015625 1.703125q0 0.7187538 0.0625 1.0781288q0.078125 0.34375 0.265625 0.734375l-1.4375 0q-0.0625 -0.140625 -0.140625 -0.4375q-0.046875 -0.125 -0.0625 -0.171875q-0.375 0.375 -0.796875 0.5625q-0.421875 0.171875 -0.90625 0.171875q-0.859375 0 -1.359375 -0.453125q-0.484375 -0.46875 -0.484375 -1.1875q0 -0.4687538 0.21875 -0.8281288q0.234375 -0.359375 0.640625 -0.546875q0.40625 -0.203125 1.15625 -0.359375q1.03125 -0.1875 1.421875 -0.359375l0 -0.140625q0 -0.421875 -0.21875 -0.59375q-0.203125 -0.1875 -0.78125 -0.1875q-0.375 0 -0.59375 0.15625q-0.21875 0.15625 -0.359375 0.53125zm1.953125 1.1875q-0.28125 0.09375 -0.890625 0.234375q-0.609375 0.125 -0.796875 0.25q-0.28125 0.203125 -0.28125 0.5156288q0 0.296875 0.21875 0.53125q0.234375 0.21875 0.59375 0.21875q0.390625 0 0.75 -0.265625q0.265625 -0.1875 0.34375 -0.484375q0.0625 -0.18750381 0.0625 -0.7031288l0 -0.296875zm2.7702484 -2.875l1.34375 0l0 0.765625q0.71875 -0.890625 1.71875 -0.890625q0.53125 0 0.921875 0.21875q0.390625 0.21875 0.640625 0.671875q0.375 -0.453125 0.796875 -0.671875q0.421875 -0.21875 0.890625 -0.21875q0.609375 0 1.03125 0.25q0.421875 0.25 0.625 0.734375q0.15625 0.34375 0.15625 1.140625l0 3.5312538l-1.453125 0l0 -3.1562538q0 -0.828125 -0.15625 -1.0625q-0.203125 -0.3125 -0.625 -0.3125q-0.3125 0 -0.578125 0.1875q-0.265625 0.1875 -0.390625 0.546875q-0.125 0.359375 -0.125 1.140625l0 2.6562538l-1.453125 0l0 -3.0312538q0 -0.796875 -0.078125 -1.03125q-0.078125 -0.234375 -0.25 -0.34375q-0.15625 -0.125 -0.4375 -0.125q-0.34375 0 -0.609375 0.1875q-0.265625 0.171875 -0.390625 0.515625q-0.109375 0.34375 -0.109375 1.140625l0 2.6875038l-1.46875 0l0 -5.531254zm9.537628 0l1.375 0l0 0.8125q0.265625 -0.40625 0.703125 -0.671875q0.453125 -0.265625 1.015625 -0.265625q0.953125 0 1.625 0.765625q0.671875 0.75 0.671875 2.09375q0 1.3906288 -0.671875 2.1562538q-0.671875 0.765625 -1.640625 0.765625q-0.453125 0 -0.828125 -0.171875q-0.375 -0.1875 -0.78125 -0.640625l0 2.796875l-1.46875 0l0 -7.640629zm1.453125 2.671875q0 0.9375 0.359375 1.3906288q0.375 0.4375 0.90625 0.4375q0.515625 0 0.84375 -0.40625q0.34375 -0.4218788 0.34375 -1.3437538q0 -0.875 -0.359375 -1.296875q-0.34375 -0.421875 -0.859375 -0.421875q-0.53125 0 -0.890625 0.421875q-0.34375 0.40625 -0.34375 1.21875zm5.102997 2.8593788l0 -7.625004l1.46875 0l0 7.625004l-1.46875 0zm6.163788 -1.7656288l1.453125 0.2500038q-0.28125 0.796875 -0.890625 1.21875q-0.609375 0.421875 -1.515625 0.421875q-1.4375 0 -2.125 -0.9375q-0.546875 -0.765625 -0.546875 -1.9062538q0 -1.375 0.71875 -2.15625q0.71875 -0.78125 1.8125 -0.78125q1.234375 0 1.9375 0.828125q0.71875 0.8125 0.6875 2.484375l-3.65625 0q0.015625 0.65625 0.34375 1.0156288q0.34375 0.359375 0.84375 0.359375q0.34375 0 0.578125 -0.1875q0.234375 -0.1875 0.359375 -0.6093788zm0.078125 -1.46875q-0.015625 -0.640625 -0.328125 -0.96875q-0.3125 -0.328125 -0.765625 -0.328125q-0.46875 0 -0.78125 0.34375q-0.3125 0.359375 -0.3125 0.953125l2.1875 0z" fill-rule="nonzero"/><path fill="#000000" fill-opacity="0.0" d="m351.30185 110.08137l94.299194 0l0 31.496056l-94.299194 0z" fill-rule="evenodd"/><path fill="#000000" d="m364.87042 121.696365l2.8125 0q0.953125 0 1.453125 0.140625q0.671875 0.203125 1.15625 0.703125q0.484375 0.5 0.734375 1.234375q0.25 0.734375 0.25 1.8125q0 0.9375 -0.234375 1.609375q-0.296875 0.84375 -0.828125 1.359375q-0.390625 0.390625 -1.078125 0.609375q-0.515625 0.15625 -1.359375 0.15625l-2.90625 0l0 -7.625zm1.546875 1.28125l0 5.0625l1.140625 0q0.65625 0 0.9375 -0.078125q0.375 -0.09375 0.625 -0.3125q0.25 -0.234375 0.40625 -0.734375q0.15625 -0.515625 0.15625 -1.40625q0 -0.875 -0.15625 -1.34375q-0.15625 -0.484375 -0.4375 -0.75q-0.28125 -0.265625 -0.71875 -0.359375q-0.328125 -0.078125 -1.265625 -0.078125l-0.6875 0zm6.1487427 0.0625l0 -1.34375l1.46875 0l0 1.34375l-1.46875 0zm0 6.28125l0 -5.53125l1.46875 0l0 5.53125l-1.46875 0zm2.4450073 -1.578125l1.46875 -0.21875q0.09375 0.421875 0.375 0.640625q0.296875 0.21875 0.796875 0.21875q0.578125 0 0.859375 -0.203125q0.1875 -0.140625 0.1875 -0.390625q0 -0.171875 -0.09375 -0.28125q-0.109375 -0.09375 -0.5 -0.1875q-1.765625 -0.390625 -2.234375 -0.703125q-0.65625 -0.453125 -0.65625 -1.25q0 -0.71875 0.5625 -1.203125q0.578125 -0.5 1.765625 -0.5q1.125 0 1.671875 0.375q0.5625 0.375 0.765625 1.09375l-1.375 0.25q-0.09375 -0.3125 -0.34375 -0.484375q-0.234375 -0.171875 -0.703125 -0.171875q-0.5625 0 -0.8125 0.15625q-0.171875 0.109375 -0.171875 0.296875q0 0.15625 0.140625 0.265625q0.203125 0.140625 1.359375 0.40625q1.171875 0.265625 1.640625 0.65625q0.453125 0.390625 0.453125 1.078125q0 0.765625 -0.640625 1.3125q-0.625 0.546875 -1.875 0.546875q-1.125 0 -1.78125 -0.453125q-0.65625 -0.46875 -0.859375 -1.25zm11.254639 -2.3125l-1.4375 0.265625q-0.078125 -0.4375 -0.34375 -0.65625q-0.25 -0.21875 -0.65625 -0.21875q-0.546875 0 -0.875 0.375q-0.3125 0.375 -0.3125 1.265625q0 0.984375 0.328125 1.390625q0.328125 0.40625 0.875 0.40625q0.421875 0 0.6875 -0.234375q0.265625 -0.25 0.375 -0.828125l1.4375 0.25q-0.21875 0.984375 -0.859375 1.5q-0.640625 0.5 -1.703125 0.5q-1.203125 0 -1.9375 -0.765625q-0.71875 -0.765625 -0.71875 -2.109375q0 -1.375 0.71875 -2.140625q0.734375 -0.765625 1.96875 -0.765625q1.0 0 1.59375 0.4375q0.609375 0.4375 0.859375 1.328125zm2.5202332 3.890625l-1.46875 0l0 -5.53125l1.359375 0l0 0.796875q0.34375 -0.5625 0.625 -0.734375q0.28125 -0.1875 0.625 -0.1875q0.5 0 0.96875 0.28125l-0.453125 1.28125q-0.375 -0.25 -0.6875 -0.25q-0.3125 0 -0.53125 0.171875q-0.203125 0.171875 -0.328125 0.625q-0.109375 0.4375 -0.109375 1.84375l0 1.703125zm2.7407532 -6.28125l0 -1.34375l1.46875 0l0 1.34375l-1.46875 0zm0 6.28125l0 -5.53125l1.46875 0l0 5.53125l-1.46875 0zm2.8512573 -5.53125l1.34375 0l0 0.765625q0.71875 -0.890625 1.71875 -0.890625q0.53125 0 0.921875 0.21875q0.390625 0.21875 0.640625 0.671875q0.375 -0.453125 0.796875 -0.671875q0.421875 -0.21875 0.890625 -0.21875q0.609375 0 1.03125 0.25q0.421875 0.25 0.625 0.734375q0.15625 0.34375 0.15625 1.140625l0 3.53125l-1.453125 0l0 -3.15625q0 -0.828125 -0.15625 -1.0625q-0.203125 -0.3125 -0.625 -0.3125q-0.3125 0 -0.578125 0.1875q-0.265625 0.1875 -0.390625 0.546875q-0.125 0.359375 -0.125 1.140625l0 2.65625l-1.453125 0l0 -3.03125q0 -0.796875 -0.078125 -1.03125q-0.078125 -0.234375 -0.25 -0.34375q-0.15625 -0.125 -0.4375 -0.125q-0.34375 0 -0.609375 0.1875q-0.265625 0.171875 -0.390625 0.515625q-0.109375 0.34375 -0.109375 1.140625l0 2.6875l-1.46875 0l0 -5.53125zm9.584503 -0.75l0 -1.34375l1.46875 0l0 1.34375l-1.46875 0zm0 6.28125l0 -5.53125l1.46875 0l0 5.53125l-1.46875 0zm7.9918823 0l-1.46875 0l0 -2.8125q0 -0.90625 -0.09375 -1.15625q-0.09375 -0.265625 -0.3125 -0.40625q-0.203125 -0.15625 -0.5 -0.15625q-0.375 0 -0.6875 0.21875q-0.296875 0.203125 -0.40625 0.546875q-0.109375 0.34375 -0.109375 1.265625l0 2.5l-1.46875 0l0 -5.53125l1.359375 0l0 0.8125q0.71875 -0.9375 1.828125 -0.9375q0.484375 0 0.875 0.1875q0.40625 0.171875 0.609375 0.4375q0.203125 0.265625 0.28125 0.609375q0.09375 0.34375 0.09375 0.984375l0 3.4375zm2.5717773 -3.84375l-1.328125 -0.234375q0.21875 -0.796875 0.765625 -1.1875q0.546875 -0.390625 1.625 -0.390625q0.984375 0 1.453125 0.234375q0.484375 0.234375 0.671875 0.59375q0.203125 0.359375 0.203125 1.3125l-0.015625 1.703125q0 0.71875 0.0625 1.078125q0.078125 0.34375 0.265625 0.734375l-1.4375 0q-0.0625 -0.140625 -0.140625 -0.4375q-0.046875 -0.125 -0.0625 -0.171875q-0.375 0.375 -0.796875 0.5625q-0.421875 0.171875 -0.90625 0.171875q-0.859375 0 -1.359375 -0.453125q-0.484375 -0.46875 -0.484375 -1.1875q0 -0.46875 0.21875 -0.828125q0.234375 -0.359375 0.640625 -0.546875q0.40625 -0.203125 1.15625 -0.359375q1.03125 -0.1875 1.421875 -0.359375l0 -0.140625q0 -0.421875 -0.21875 -0.59375q-0.203125 -0.1875 -0.78125 -0.1875q-0.375 0 -0.59375 0.15625q-0.21875 0.15625 -0.359375 0.53125zm1.953125 1.1875q-0.28125 0.09375 -0.890625 0.234375q-0.609375 0.125 -0.796875 0.25q-0.28125 0.203125 -0.28125 0.515625q0 0.296875 0.21875 0.53125q0.234375 0.21875 0.59375 0.21875q0.390625 0 0.75 -0.265625q0.265625 -0.1875 0.34375 -0.484375q0.0625 -0.1875 0.0625 -0.703125l0 -0.296875zm5.410858 -2.875l0 1.171875l-1.0 0l0 2.21875q0 0.6875 0.03125 0.796875q0.03125 0.109375 0.125 0.1875q0.109375 0.0625 0.25 0.0625q0.203125 0 0.59375 -0.140625l0.125 1.140625q-0.515625 0.21875 -1.15625 0.21875q-0.390625 0 -0.71875 -0.125q-0.3125 -0.140625 -0.46875 -0.34375q-0.140625 -0.21875 -0.203125 -0.578125q-0.046875 -0.25 -0.046875 -1.03125l0 -2.40625l-0.671875 0l0 -1.171875l0.671875 0l0 -1.09375l1.46875 -0.859375l0 1.953125l1.0 0zm0.6736145 2.6875q0 -0.71875 0.359375 -1.40625q0.359375 -0.6875 1.015625 -1.046875q0.671875 -0.359375 1.46875 -0.359375q1.265625 0 2.0625 0.828125q0.796875 0.8125 0.796875 2.046875q0 1.25 -0.8125 2.078125q-0.796875 0.828125 -2.03125 0.828125q-0.75 0 -1.453125 -0.34375q-0.6875 -0.34375 -1.046875 -1.0q-0.359375 -0.671875 -0.359375 -1.625zm1.5 0.078125q0 0.828125 0.390625 1.265625q0.390625 0.4375 0.96875 0.4375q0.5625 0 0.953125 -0.4375q0.390625 -0.4375 0.390625 -1.265625q0 -0.8125 -0.390625 -1.25q-0.390625 -0.4375 -0.953125 -0.4375q-0.578125 0 -0.96875 0.4375q-0.390625 0.4375 -0.390625 1.25zm6.7592773 2.765625l-1.46875 0l0 -5.53125l1.359375 0l0 0.796875q0.34375 -0.5625 0.625 -0.734375q0.28125 -0.1875 0.625 -0.1875q0.5 0 0.96875 0.28125l-0.453125 1.28125q-0.375 -0.25 -0.6875 -0.25q-0.3125 0 -0.53125 0.171875q-0.203125 0.171875 -0.328125 0.625q-0.109375 0.4375 -0.109375 1.84375l0 1.703125z" fill-rule="nonzero"/><path fill="#000000" fill-opacity="0.0" d="m549.3018 115.46457l0 -99.46457l-50.173218 0l0 99.46457z" fill-rule="evenodd"/><path fill="#000000" d="m537.3756 27.92955l0 3.15625q0 1.078125 -0.171875 1.640625q-0.21875 0.75 -0.796875 1.28125q-0.5625 0.546875 -1.390625 0.828125q-0.8125 0.28125 -2.015625 0.28125q-1.0625 0 -1.828125 -0.25q-0.9375 -0.328125 -1.515625 -0.921875q-0.453125 -0.453125 -0.6875 -1.21875q-0.1875 -0.578125 -0.1875 -1.546875l0 -3.25l8.59375 0zm-1.453125 1.734375l-5.6875 0l0 1.28125q0 0.734375 0.078125 1.0625q0.109375 0.421875 0.359375 0.6875q0.25 0.28125 0.828125 0.453125q0.578125 0.1875 1.578125 0.1875q0.984375 0 1.515625 -0.1875q0.546875 -0.171875 0.84375 -0.484375q0.296875 -0.3125 0.40625 -0.796875q0.078125 -0.375 0.078125 -1.4375l0 -0.765625zm-0.078125 6.9160156l1.53125 0l0 1.65625l-1.53125 0l0 -1.65625zm-7.0625 0l6.21875 0l0 1.65625l-6.21875 0l0 -1.65625zm1.78125 2.7558594l0.25 1.65625q-0.484375 0.109375 -0.734375 0.421875q-0.25 0.328125 -0.25 0.90625q0 0.640625 0.234375 0.953125q0.171875 0.21875 0.4375 0.21875q0.1875 0 0.3125 -0.109375q0.125 -0.125 0.21875 -0.546875q0.4375 -2.0 0.796875 -2.53125q0.515625 -0.734375 1.40625 -0.734375q0.8125 0 1.359375 0.625q0.546875 0.640625 0.546875 1.984375q0 1.28125 -0.421875 1.90625q-0.40625 0.625 -1.21875 0.859375l-0.28125 -1.5625q0.359375 -0.09375 0.546875 -0.375q0.203125 -0.28125 0.203125 -0.796875q0 -0.640625 -0.1875 -0.921875q-0.125 -0.1875 -0.328125 -0.1875q-0.1875 0 -0.3125 0.15625q-0.15625 0.21875 -0.453125 1.53125q-0.296875 1.328125 -0.734375 1.84375q-0.4375 0.515625 -1.21875 0.515625q-0.859375 0 -1.484375 -0.71875q-0.609375 -0.703125 -0.609375 -2.109375q0 -1.265625 0.515625 -2.015625q0.515625 -0.734375 1.40625 -0.96875zm2.609375 12.673828l-0.296875 -1.609375q0.484375 -0.09375 0.71875 -0.390625q0.25 -0.28125 0.25 -0.734375q0 -0.625 -0.421875 -1.0q-0.421875 -0.359375 -1.421875 -0.359375q-1.109375 0 -1.5625 0.375q-0.453125 0.375 -0.453125 1.0q0 0.46875 0.265625 0.765625q0.265625 0.296875 0.921875 0.421875l-0.28125 1.625q-1.109375 -0.25 -1.6875 -0.96875q-0.5625 -0.71875 -0.5625 -1.921875q0 -1.359375 0.859375 -2.171875q0.859375 -0.8125 2.390625 -0.8125q1.53125 0 2.390625 0.8125q0.859375 0.8125 0.859375 2.203125q0 1.140625 -0.484375 1.8125q-0.484375 0.671875 -1.484375 0.953125zm-4.390625 2.8300781l0 -1.640625l6.21875 0l0 1.53125l-0.875 0q0.625 0.390625 0.8125 0.703125q0.203125 0.3125 0.203125 0.703125q0 0.5625 -0.3125 1.09375l-1.421875 -0.515625q0.265625 -0.421875 0.265625 -0.765625q0 -0.359375 -0.203125 -0.59375q-0.1875 -0.234375 -0.6875 -0.375q-0.484375 -0.140625 -2.078125 -0.140625l-1.921875 0zm7.0625 3.0917969l1.53125 0l0 1.65625l-1.53125 0l0 -1.65625zm-7.0625 0l6.21875 0l0 1.65625l-6.21875 0l0 -1.65625zm6.21875 3.2089844l0 1.515625l-0.84375 0q0.984375 0.828125 0.984375 1.953125q0 0.59375 -0.25 1.03125q-0.234375 0.4375 -0.734375 0.71875q0.5 0.40625 0.734375 0.875q0.25 0.484375 0.25 1.03125q0 0.671875 -0.28125 1.140625q-0.265625 0.484375 -0.8125 0.71875q-0.390625 0.171875 -1.28125 0.171875l-3.984375 0l0 -1.640625l3.5625 0q0.921875 0 1.1875 -0.171875q0.359375 -0.234375 0.359375 -0.703125q0 -0.34375 -0.21875 -0.65625q-0.203125 -0.296875 -0.609375 -0.4375q-0.40625 -0.140625 -1.296875 -0.140625l-2.984375 0l0 -1.640625l3.40625 0q0.90625 0 1.171875 -0.09375q0.265625 -0.078125 0.390625 -0.265625q0.140625 -0.1875 0.140625 -0.5q0 -0.375 -0.21875 -0.6875q-0.203125 -0.296875 -0.59375 -0.4375q-0.375 -0.125 -1.265625 -0.125l-3.03125 0l0 -1.65625l6.21875 0zm0.84375 10.794922l1.53125 0l0 1.65625l-1.53125 0l0 -1.65625zm-7.0625 0l6.21875 0l0 1.65625l-6.21875 0l0 -1.65625zm0 8.990234l0 -1.640625l3.171875 0q1.015625 0 1.3125 -0.109375q0.296875 -0.09375 0.453125 -0.34375q0.171875 -0.234375 0.171875 -0.5625q0 -0.4375 -0.234375 -0.78125q-0.234375 -0.328125 -0.625 -0.453125q-0.390625 -0.125 -1.4375 -0.125l-2.8125 0l0 -1.65625l6.21875 0l0 1.53125l-0.90625 0q1.046875 0.8125 1.046875 2.0625q0 0.53125 -0.203125 0.984375q-0.1875 0.453125 -0.5 0.6875q-0.296875 0.234375 -0.6875 0.3125q-0.375 0.09375 -1.09375 0.09375l-3.875 0zm4.328125 2.9082031l0.265625 -1.5q0.90625 0.25 1.328125 0.859375q0.4375 0.625 0.4375 1.84375q0 1.09375 -0.265625 1.625q-0.25 0.546875 -0.65625 0.765625q-0.390625 0.21875 -1.46875 0.21875l-1.921875 -0.015625q-0.828125 0 -1.21875 0.078125q-0.375 0.078125 -0.828125 0.296875l0 -1.625q0.171875 -0.0625 0.484375 -0.15625q0.15625 -0.046875 0.203125 -0.0625q-0.421875 -0.421875 -0.625 -0.90625q-0.203125 -0.46875 -0.203125 -1.015625q0 -0.96875 0.515625 -1.53125q0.53125 -0.546875 1.328125 -0.546875q0.53125 0 0.9375 0.25q0.40625 0.265625 0.625 0.71875q0.234375 0.453125 0.390625 1.3125q0.21875 1.140625 0.40625 1.59375l0.15625 0q0.484375 0 0.6875 -0.234375q0.203125 -0.234375 0.203125 -0.890625q0 -0.4375 -0.171875 -0.6875q-0.171875 -0.234375 -0.609375 -0.390625zm-1.34375 2.203125q-0.09375 -0.3125 -0.25 -1.0q-0.140625 -0.6875 -0.28125 -0.90625q-0.234375 -0.3125 -0.578125 -0.3125q-0.34375 0 -0.609375 0.25q-0.25 0.265625 -0.25 0.65625q0 0.453125 0.296875 0.859375q0.21875 0.296875 0.546875 0.390625q0.203125 0.0625 0.796875 0.0625l0.328125 0zm3.234375 6.095703l-1.3125 0l0 -1.125l-2.5 0q-0.765625 0 -0.890625 0.03125q-0.125 0.03125 -0.21875 0.140625q-0.078125 0.125 -0.078125 0.28125q0 0.234375 0.171875 0.65625l-1.28125 0.140625q-0.25 -0.5625 -0.25 -1.296875q0 -0.4375 0.140625 -0.796875q0.15625 -0.359375 0.390625 -0.53125q0.25 -0.15625 0.640625 -0.234375q0.296875 -0.046875 1.171875 -0.046875l2.703125 0l0 -0.75l1.3125 0l0 0.75l1.234375 0l0.96875 1.65625l-2.203125 0l0 1.125zm-3.015625 0.76171875q0.8125 0 1.578125 0.40625q0.78125 0.40625 1.171875 1.140625q0.40625 0.734375 0.40625 1.65625q0 1.40625 -0.921875 2.3125q-0.90625 0.90625 -2.3125 0.90625q-1.40625 0 -2.34375 -0.921875q-0.921875 -0.90625 -0.921875 -2.28125q0 -0.859375 0.390625 -1.640625q0.390625 -0.765625 1.125 -1.171875q0.75 -0.40625 1.828125 -0.40625zm-0.09375 1.6875q-0.921875 0 -1.421875 0.4375q-0.484375 0.4375 -0.484375 1.078125q0 0.65625 0.484375 1.078125q0.5 0.4375 1.4375 0.4375q0.90625 0 1.390625 -0.4375q0.5 -0.421875 0.5 -1.078125q0 -0.640625 -0.5 -1.078125q-0.484375 -0.4375 -1.40625 -0.4375zm-3.109375 7.595703l0 -1.640625l6.21875 0l0 1.53125l-0.875 0q0.625 0.390625 0.8125 0.703125q0.203125 0.3125 0.203125 0.703125q0 0.5625 -0.3125 1.09375l-1.421875 -0.515625q0.265625 -0.421875 0.265625 -0.765625q0 -0.359375 -0.203125 -0.59375q-0.1875 -0.234375 -0.6875 -0.375q-0.484375 -0.140625 -2.078125 -0.140625l-1.921875 0z" fill-rule="nonzero"/><path fill="#000000" d="m514.78186 54.5858l8.59375 0l0 1.65625l-8.59375 0l0 -1.65625zm3.203125 2.9589844q0.8125 0 1.578125 0.40625q0.78125 0.40625 1.171875 1.140625q0.40625 0.734375 0.40625 1.65625q0 1.40625 -0.921875 2.3125q-0.90625 0.90625 -2.3125 0.90625q-1.40625 0 -2.34375 -0.921875q-0.921875 -0.90625 -0.921875 -2.28125q0 -0.859375 0.390625 -1.640625q0.390625 -0.765625 1.125 -1.171875q0.75 -0.40625 1.828125 -0.40625zm-0.09375 1.6875q-0.921875 0 -1.421875 0.4375q-0.484375 0.4375 -0.484375 1.078125q0 0.65625 0.484375 1.078125q0.5 0.4375 1.4375 0.4375q0.90625 0 1.390625 -0.4375q0.5 -0.421875 0.5 -1.078125q0 -0.640625 -0.5 -1.078125q-0.484375 -0.4375 -1.40625 -0.4375zm-1.328125 5.439453l0.25 1.65625q-0.484375 0.109375 -0.734375 0.421875q-0.25 0.328125 -0.25 0.90625q0 0.640625 0.234375 0.953125q0.171875 0.21875 0.4375 0.21875q0.1875 0 0.3125 -0.109375q0.125 -0.125 0.21875 -0.546875q0.4375 -2.0 0.796875 -2.53125q0.515625 -0.734375 1.40625 -0.734375q0.8125 0 1.359375 0.625q0.546875 0.640625 0.546875 1.984375q0 1.28125 -0.421875 1.90625q-0.40625 0.625 -1.21875 0.859375l-0.28125 -1.5625q0.359375 -0.09375 0.546875 -0.375q0.203125 -0.28125 0.203125 -0.796875q0 -0.640625 -0.1875 -0.921875q-0.125 -0.1875 -0.328125 -0.1875q-0.1875 0 -0.3125 0.15625q-0.15625 0.21875 -0.453125 1.53125q-0.296875 1.328125 -0.734375 1.84375q-0.4375 0.515625 -1.21875 0.515625q-0.859375 0 -1.484375 -0.71875q-0.609375 -0.703125 -0.609375 -2.109375q0 -1.265625 0.515625 -2.015625q0.515625 -0.734375 1.40625 -0.96875zm0 6.673828l0.25 1.65625q-0.484375 0.109375 -0.734375 0.421875q-0.25 0.328125 -0.25 0.90625q0 0.640625 0.234375 0.953125q0.171875 0.21875 0.4375 0.21875q0.1875 0 0.3125 -0.109375q0.125 -0.125 0.21875 -0.546875q0.4375 -2.0 0.796875 -2.53125q0.515625 -0.734375 1.40625 -0.734375q0.8125 0 1.359375 0.625q0.546875 0.640625 0.546875 1.984375q0 1.28125 -0.421875 1.90625q-0.40625 0.625 -1.21875 0.859375l-0.28125 -1.5625q0.359375 -0.09375 0.546875 -0.375q0.203125 -0.28125 0.203125 -0.796875q0 -0.640625 -0.1875 -0.921875q-0.125 -0.1875 -0.328125 -0.1875q-0.1875 0 -0.3125 0.15625q-0.15625 0.21875 -0.453125 1.53125q-0.296875 1.328125 -0.734375 1.84375q-0.4375 0.515625 -1.21875 0.515625q-0.859375 0 -1.484375 -0.71875q-0.609375 -0.703125 -0.609375 -2.109375q0 -1.265625 0.515625 -2.015625q0.515625 -0.734375 1.40625 -0.96875z" fill-rule="nonzero"/><path fill="#efefef" d="m500.29398 135.79527l47.8425 0l0 99.46457l-47.8425 0z" fill-rule="evenodd"/><path stroke="#000000" stroke-width="1.0" stroke-linejoin="round" stroke-linecap="butt" d="m500.29398 135.79527l47.8425 0l0 99.46457l-47.8425 0z" fill-rule="evenodd"/><path fill="#000000" fill-opacity="0.0" d="m549.3018 235.25984l0 -99.46457l-50.173218 0l0 99.46457z" fill-rule="evenodd"/><path fill="#000000" d="m531.9381 161.72678l1.453125 0l0 3.734375l-3.421875 0q-0.53125 -0.546875 -0.9375 -1.578125q-0.390625 -1.03125 -0.390625 -2.09375q0 -1.34375 0.5625 -2.359375q0.5625 -1.0 1.609375 -1.5q1.0625 -0.5 2.296875 -0.5q1.34375 0 2.375 0.5625q1.046875 0.5625 1.609375 1.640625q0.421875 0.828125 0.421875 2.0625q0 1.59375 -0.671875 2.484375q-0.671875 0.90625 -1.84375 1.171875l-0.328125 -1.71875q0.625 -0.1875 0.984375 -0.6875q0.375 -0.5 0.375 -1.25q0 -1.140625 -0.71875 -1.8125q-0.71875 -0.671875 -2.140625 -0.671875q-1.53125 0 -2.296875 0.671875q-0.75 0.6875 -0.75 1.796875q0 0.546875 0.203125 1.09375q0.21875 0.546875 0.515625 0.9375l1.09375 0l0 -1.984375zm-1.171875 8.927734l-0.28125 1.640625q-0.90625 -0.3125 -1.375 -1.0q-0.46875 -0.6875 -0.46875 -1.703125q0 -1.625 1.0625 -2.40625q0.84375 -0.625 2.140625 -0.625q1.546875 0 2.421875 0.8125q0.875 0.8125 0.875 2.046875q0 1.390625 -0.921875 2.1875q-0.90625 0.8125 -2.796875 0.765625l0 -4.125q-0.734375 0.03125 -1.140625 0.40625q-0.40625 0.375 -0.40625 0.953125q0 0.375 0.203125 0.640625q0.21875 0.265625 0.6875 0.40625zm1.65625 0.09375q0.71875 -0.015625 1.09375 -0.375q0.375 -0.34375 0.375 -0.859375q0 -0.53125 -0.390625 -0.890625q-0.40625 -0.34375 -1.078125 -0.34375l0 2.46875zm-3.640625 8.626953l0 -1.640625l3.171875 0q1.015625 0 1.3125 -0.109375q0.296875 -0.09375 0.453125 -0.34375q0.171875 -0.234375 0.171875 -0.5625q0 -0.4375 -0.234375 -0.78125q-0.234375 -0.328125 -0.625 -0.453125q-0.390625 -0.125 -1.4375 -0.125l-2.8125 0l0 -1.65625l6.21875 0l0 1.53125l-0.90625 0q1.046875 0.8125 1.046875 2.0625q0 0.53125 -0.203125 0.984375q-0.1875 0.453125 -0.5 0.6875q-0.296875 0.234375 -0.6875 0.3125q-0.375 0.09375 -1.09375 0.09375l-3.875 0zm1.984375 5.283203l-0.28125 1.640625q-0.90625 -0.3125 -1.375 -1.0q-0.46875 -0.6875 -0.46875 -1.703125q0 -1.625 1.0625 -2.40625q0.84375 -0.625 2.140625 -0.625q1.546875 0 2.421875 0.8125q0.875 0.8125 0.875 2.046875q0 1.390625 -0.921875 2.1875q-0.90625 0.8125 -2.796875 0.765625l0 -4.125q-0.734375 0.03125 -1.140625 0.40625q-0.40625 0.375 -0.40625 0.953125q0 0.375 0.203125 0.640625q0.21875 0.265625 0.6875 0.40625zm1.65625 0.09375q0.71875 -0.015625 1.09375 -0.375q0.375 -0.34375 0.375 -0.859375q0 -0.53125 -0.390625 -0.890625q-0.40625 -0.34375 -1.078125 -0.34375l0 2.46875zm-3.640625 4.548828l0 -1.640625l6.21875 0l0 1.53125l-0.875 0q0.625 0.390625 0.8125 0.703125q0.203125 0.3125 0.203125 0.703125q0 0.5625 -0.3125 1.09375l-1.421875 -0.515625q0.265625 -0.421875 0.265625 -0.765625q0 -0.359375 -0.203125 -0.59375q-0.1875 -0.234375 -0.6875 -0.375q-0.484375 -0.140625 -2.078125 -0.140625l-1.921875 0zm4.328125 4.326172l0.265625 -1.5q0.90625 0.25 1.328125 0.859375q0.4375 0.625 0.4375 1.84375q0 1.09375 -0.265625 1.625q-0.25 0.546875 -0.65625 0.765625q-0.390625 0.21875 -1.46875 0.21875l-1.921875 -0.015625q-0.828125 0 -1.21875 0.078125q-0.375 0.078125 -0.828125 0.296875l0 -1.625q0.171875 -0.0625 0.484375 -0.15625q0.15625 -0.046875 0.203125 -0.0625q-0.421875 -0.421875 -0.625 -0.90625q-0.203125 -0.46875 -0.203125 -1.015625q0 -0.96875 0.515625 -1.53125q0.53125 -0.546875 1.328125 -0.546875q0.53125 0 0.9375 0.25q0.40625 0.265625 0.625 0.71875q0.234375 0.453125 0.390625 1.3125q0.21875 1.140625 0.40625 1.59375l0.15625 0q0.484375 0 0.6875 -0.234375q0.203125 -0.234375 0.203125 -0.890625q0 -0.4375 -0.171875 -0.6875q-0.171875 -0.234375 -0.609375 -0.390625zm-1.34375 2.203125q-0.09375 -0.3125 -0.25 -1.0q-0.140625 -0.6875 -0.28125 -0.90625q-0.234375 -0.3125 -0.578125 -0.3125q-0.34375 0 -0.609375 0.25q-0.25 0.265625 -0.25 0.65625q0 0.453125 0.296875 0.859375q0.21875 0.296875 0.546875 0.390625q0.203125 0.0625 0.796875 0.0625l0.328125 0zm3.234375 6.095703l-1.3125 0l0 -1.125l-2.5 0q-0.765625 0 -0.890625 0.03125q-0.125 0.03125 -0.21875 0.140625q-0.078125 0.125 -0.078125 0.28125q0 0.234375 0.171875 0.65625l-1.28125 0.140625q-0.25 -0.5625 -0.25 -1.296875q0 -0.4375 0.140625 -0.796875q0.15625 -0.359375 0.390625 -0.53125q0.25 -0.15625 0.640625 -0.234375q0.296875 -0.046875 1.171875 -0.046875l2.703125 0l0 -0.75l1.3125 0l0 0.75l1.234375 0l0.96875 1.65625l-2.203125 0l0 1.125zm-3.015625 0.76171875q0.8125 0 1.578125 0.40625q0.78125 0.40625 1.171875 1.140625q0.40625 0.734375 0.40625 1.65625q0 1.40625 -0.921875 2.3125q-0.90625 0.90625 -2.3125 0.90625q-1.40625 0 -2.34375 -0.921875q-0.921875 -0.90625 -0.921875 -2.28125q0 -0.859375 0.390625 -1.640625q0.390625 -0.765625 1.125 -1.171875q0.75 -0.40625 1.828125 -0.40625zm-0.09375 1.6875q-0.921875 0 -1.421875 0.4375q-0.484375 0.4375 -0.484375 1.078125q0 0.65625 0.484375 1.078125q0.5 0.4375 1.4375 0.4375q0.90625 0 1.390625 -0.4375q0.5 -0.421875 0.5 -1.078125q0 -0.640625 -0.5 -1.078125q-0.484375 -0.4375 -1.40625 -0.4375zm-3.109375 7.595703l0 -1.640625l6.21875 0l0 1.53125l-0.875 0q0.625 0.390625 0.8125 0.703125q0.203125 0.3125 0.203125 0.703125q0 0.5625 -0.3125 1.09375l-1.421875 -0.515625q0.265625 -0.421875 0.265625 -0.765625q0 -0.359375 -0.203125 -0.59375q-0.1875 -0.234375 -0.6875 -0.375q-0.484375 -0.140625 -2.078125 -0.140625l-1.921875 0z" fill-rule="nonzero"/><path fill="#000000" d="m514.78186 174.38107l8.59375 0l0 1.65625l-8.59375 0l0 -1.65625zm3.203125 2.9589844q0.8125 0 1.578125 0.40625q0.78125 0.40625 1.171875 1.140625q0.40625 0.734375 0.40625 1.65625q0 1.40625 -0.921875 2.3125q-0.90625 0.90625 -2.3125 0.90625q-1.40625 0 -2.34375 -0.921875q-0.921875 -0.90625 -0.921875 -2.28125q0 -0.859375 0.390625 -1.640625q0.390625 -0.765625 1.125 -1.171875q0.75 -0.40625 1.828125 -0.40625zm-0.09375 1.6875q-0.921875 0 -1.421875 0.4375q-0.484375 0.4375 -0.484375 1.078125q0 0.65625 0.484375 1.078125q0.5 0.4375 1.4375 0.4375q0.90625 0 1.390625 -0.4375q0.5 -0.421875 0.5 -1.078125q0 -0.640625 -0.5 -1.078125q-0.484375 -0.4375 -1.40625 -0.4375zm-1.328125 5.439453l0.25 1.65625q-0.484375 0.109375 -0.734375 0.421875q-0.25 0.328125 -0.25 0.90625q0 0.640625 0.234375 0.953125q0.171875 0.21875 0.4375 0.21875q0.1875 0 0.3125 -0.109375q0.125 -0.125 0.21875 -0.546875q0.4375 -2.0 0.796875 -2.53125q0.515625 -0.734375 1.40625 -0.734375q0.8125 0 1.359375 0.625q0.546875 0.640625 0.546875 1.984375q0 1.28125 -0.421875 1.90625q-0.40625 0.625 -1.21875 0.859375l-0.28125 -1.5625q0.359375 -0.09375 0.546875 -0.375q0.203125 -0.28125 0.203125 -0.796875q0 -0.640625 -0.1875 -0.921875q-0.125 -0.1875 -0.328125 -0.1875q-0.1875 0 -0.3125 0.15625q-0.15625 0.21875 -0.453125 1.53125q-0.296875 1.328125 -0.734375 1.84375q-0.4375 0.515625 -1.21875 0.515625q-0.859375 0 -1.484375 -0.71875q-0.609375 -0.703125 -0.609375 -2.109375q0 -1.265625 0.515625 -2.015625q0.515625 -0.734375 1.40625 -0.96875zm0 6.673828l0.25 1.65625q-0.484375 0.109375 -0.734375 0.421875q-0.25 0.328125 -0.25 0.90625q0 0.640625 0.234375 0.953125q0.171875 0.21875 0.4375 0.21875q0.1875 0 0.3125 -0.109375q0.125 -0.125 0.21875 -0.546875q0.4375 -2.0 0.796875 -2.53125q0.515625 -0.734375 1.40625 -0.734375q0.8125 0 1.359375 0.625q0.546875 0.640625 0.546875 1.984375q0 1.28125 -0.421875 1.90625q-0.40625 0.625 -1.21875 0.859375l-0.28125 -1.5625q0.359375 -0.09375 0.546875 -0.375q0.203125 -0.28125 0.203125 -0.796875q0 -0.640625 -0.1875 -0.921875q-0.125 -0.1875 -0.328125 -0.1875q-0.1875 0 -0.3125 0.15625q-0.15625 0.21875 -0.453125 1.53125q-0.296875 1.328125 -0.734375 1.84375q-0.4375 0.515625 -1.21875 0.515625q-0.859375 0 -1.484375 -0.71875q-0.609375 -0.703125 -0.609375 -2.109375q0 -1.265625 0.515625 -2.015625q0.515625 -0.734375 1.40625 -0.96875z" fill-rule="nonzero"/></g></svg>