<svg version="1.1" viewBox="0.0 0.0 582.0 268.0" fill="none" stroke="none" stroke-linecap="square" stroke-miterlimit="10" xmlns:xlink="http://www.w3.org/1999/xlink" xmlns="http://www.w3.org/2000/svg"><clipPath id="p.0"><path d="m0 0l582.0 0l0 268.0l-582.0 0l0 -268.0z" clip-rule="nonzero"/></clipPath><g clip-path="url(#p.0)"><path fill="#000000" fill-opacity="0.0" d="m0 0l582.0 0l0 268.0l-582.0 0z" fill-rule="evenodd"/><path fill="#000000" fill-opacity="0.0" d="m111.28609 175.63649l0 -73.54331l31.181107 0l0 73.54331z" fill-rule="evenodd"/><path fill="#000000" d="m141.48235 162.38649l0 -8.078125l1.84375 0l0 10.34375l-17.062508 0l0 -2.265625l15.218758 0zm-4.609375 -9.7265625q-1.875 0 -3.359375 -0.734375q-1.484375 -0.734375 -2.296875 -2.03125q-0.8125 -1.3125 -0.8125 -3.0q0 -2.578125 1.796875 -4.171875q1.796875 -1.609375 4.765625 -1.609375l0.15625 0q1.859375 0 3.328125 0.71875q1.46875 0.703125 2.296875 2.015625q0.8125 1.3125 0.8125 3.03125q0 2.578125 -1.796875 4.1875q-1.796875 1.59375 -4.75 1.59375l-0.140625 0zm0.25 -2.1875q2.109375 0 3.390625 -0.96875q1.28125 -0.984375 1.28125 -2.625q0 -1.65625 -1.296875 -2.625q-1.296875 -0.96875 -3.625 -0.96875q-2.09375 0 -3.390625 0.984375q-1.296875 0.984375 -1.296875 2.625q0 1.609375 1.28125 2.59375q1.28125 0.984375 3.65625 0.984375zm2.84375 -19.46875q-0.890625 0 -1.375 0.671875q-0.484375 0.65625 -0.828125 2.3125q-0.359375 1.640625 -0.84375 2.609375q-0.5 0.96875 -1.171875 1.4375q-0.6875 0.453125 -1.625 0.453125q-1.5625 0 -2.640625 -1.3125q-1.078125 -1.328125 -1.078125 -3.375q0 -2.15625 1.125 -3.5q1.109375 -1.34375 2.84375 -1.34375l0 2.1875q-0.890625 0 -1.53125 0.75q-0.65625 0.75 -0.65625 1.90625q0 1.1875 0.515625 1.859375q0.515625 0.65625 1.359375 0.65625q0.78125 0 1.1875 -0.609375q0.390625 -0.625 0.75 -2.25q0.359375 -1.625 0.875 -2.625q0.5 -1.015625 1.21875 -1.5q0.703125 -0.484375 1.71875 -0.484375q1.703125 0 2.734375 1.359375q1.015625 1.359375 1.015625 3.515625q0 1.53125 -0.53125 2.703125q-0.546875 1.171875 -1.515625 1.84375q-0.96875 0.65625 -2.09375 0.65625l0 -2.171875q1.09375 -0.0625 1.734375 -0.875q0.640625 -0.8125 0.640625 -2.15625q0 -1.21875 -0.5 -1.96875q-0.5 -0.75 -1.328125 -0.75zm0 -12.375008q-0.890625 0 -1.375 0.671875q-0.484375 0.65625 -0.828125 2.3125q-0.359375 1.640625 -0.84375 2.609375q-0.5 0.96875 -1.171875 1.4375q-0.6875 0.453125 -1.625 0.453125q-1.5625 0 -2.640625 -1.3125q-1.078125 -1.328125 -1.078125 -3.375q0 -2.15625 1.125 -3.5q1.109375 -1.34375 2.84375 -1.34375l0 2.1875q-0.890625 0 -1.53125 0.75q-0.65625 0.75 -0.65625 1.90625q0 1.1875 0.515625 1.859375q0.515625 0.65625 1.359375 0.65625q0.78125 0 1.1875 -0.609375q0.390625 -0.625 0.75 -2.25q0.359375 -1.625 0.875 -2.625q0.5 -1.015625 1.21875 -1.5q0.703125 -0.484375 1.71875 -0.484375q1.703125 0 2.734375 1.359375q1.015625 1.359375 1.015625 3.515625q0 1.53125 -0.53125 2.703125q-0.546875 1.171875 -1.515625 1.84375q-0.96875 0.65625 -2.09375 0.65625l0 -2.171875q1.09375 -0.0625 1.734375 -0.875q0.640625 -0.8125 0.640625 -2.15625q0 -1.21875 -0.5 -1.96875q-0.5 -0.75 -1.328125 -0.75z" fill-rule="nonzero"/><path fill="#000000" fill-opacity="0.0" d="m234.10498 227.27428l83.08661 0l0 31.181107l-83.08661 0z" fill-rule="evenodd"/><path fill="#000000" d="m250.1206 251.70491q-2.90625 -0.828125 -4.21875 -2.03125q-1.3125 -1.21875 -1.3125 -3.0q0 -2.015625 1.609375 -3.328125q1.609375 -1.328125 4.1875 -1.328125q1.75 0 3.125 0.6875q1.390625 0.671875 2.140625 1.875q0.75 1.1875 0.75 2.609375l-2.25 0q0 -1.546875 -0.984375 -2.4375q-0.984375 -0.890625 -2.78125 -0.890625q-1.671875 0 -2.609375 0.734375q-0.921875 0.734375 -0.921875 2.03125q0 1.046875 0.875 1.765625q0.890625 0.71875 3.015625 1.328125q2.140625 0.59375 3.328125 1.3125q1.203125 0.71875 1.78125 1.6875q0.59375 0.953125 0.59375 2.25q0 2.0781097 -1.625 3.3281097q-1.609375 1.25 -4.328125 1.25q-1.75 0 -3.28125 -0.671875q-1.515625 -0.671875 -2.34375 -1.84375q-0.828125 -1.1718597 -0.828125 -2.6718597l2.265625 0q0 1.546875 1.140625 2.4531097q1.140625 0.890625 3.046875 0.890625q1.78125 0 2.734375 -0.71875q0.953125 -0.734375 0.953125 -1.9843597q0 -1.25 -0.890625 -1.9375q-0.875 -0.6875 -3.171875 -1.359375zm11.800781 -8.140625l0 3.0625l2.375 0l0 1.6875l-2.375 0l0 7.8593597q0 0.765625 0.3125 1.140625q0.328125 0.375 1.09375 0.375q0.375 0 1.03125 -0.140625l0 1.765625q-0.859375 0.234375 -1.671875 0.234375q-1.453125 0 -2.1875 -0.875q-0.734375 -0.890625 -0.734375 -2.5l0 -7.8593597l-2.3125 0l0 -1.6875l2.3125 0l0 -3.0625l2.15625 0zm10.167969 15.98436q-2.578125 0 -4.203125 -1.6875q-1.609375 -1.703125 -1.609375 -4.5312347l0 -0.40625q0 -1.890625 0.71875 -3.359375q0.71875 -1.484375 2.015625 -2.328125q1.296875 -0.84375 2.8125 -0.84375q2.46875 0 3.828125 1.640625q1.375 1.625 1.375 4.65625l0 0.90625l-8.578125 0q0.046875 1.875 1.09375 3.0312347q1.046875 1.15625 2.65625 1.15625q1.15625 0 1.953125 -0.46875q0.796875 -0.46875 1.390625 -1.25l1.328125 1.03125q-1.59375 2.453125 -4.78125 2.453125zm-0.265625 -11.374985q-1.3125 0 -2.203125 0.96875q-0.890625 0.953125 -1.109375 2.671875l6.359375 0l0 -0.171875q-0.09375 -1.640625 -0.890625 -2.546875q-0.796875 -0.921875 -2.15625 -0.921875zm18.433594 4.9375q0 2.8906097 -1.328125 4.6718597q-1.328125 1.765625 -3.59375 1.765625q-2.296875 0 -3.625 -1.46875l0 6.109375l-2.171875 0l0 -17.562485l1.984375 0l0.109375 1.40625q1.3125 -1.640625 3.671875 -1.640625q2.28125 0 3.609375 1.734375q1.34375 1.71875 1.34375 4.78125l0 0.203125zm-2.171875 -0.25q0 -2.140625 -0.921875 -3.375q-0.90625 -1.25 -2.5 -1.25q-1.96875 0 -2.953125 1.75l0 6.0624847q0.96875 1.734375 2.96875 1.734375q1.5625 0 2.484375 -1.234375q0.921875 -1.2499847 0.921875 -3.6874847zm12.308594 3.09375q0 -0.890625 -0.671875 -1.375q-0.65625 -0.484375 -2.3125 -0.828125q-1.640625 -0.359375 -2.609375 -0.84375q-0.96875 -0.5 -1.4375 -1.171875q-0.453125 -0.6875 -0.453125 -1.625q0 -1.5625 1.3125 -2.640625q1.328125 -1.078125 3.375 -1.078125q2.15625 0 3.5 1.125q1.34375 1.109375 1.34375 2.84375l-2.1875 0q0 -0.890625 -0.75 -1.53125q-0.75 -0.65625 -1.90625 -0.65625q-1.1875 0 -1.859375 0.515625q-0.65625 0.515625 -0.65625 1.359375q0 0.78125 0.609375 1.1875q0.625 0.390625 2.25 0.75q1.625 0.359375 2.625 0.875q1.015625 0.5 1.5 1.21875q0.484375 0.703125 0.484375 1.71875q0 1.7031097 -1.359375 2.7343597q-1.359375 1.015625 -3.515625 1.015625q-1.53125 0 -2.703125 -0.53125q-1.171875 -0.546875 -1.84375 -1.515625q-0.65625 -0.96875 -0.65625 -2.0937347l2.171875 0q0.0625 1.0937347 0.875 1.7343597q0.8125 0.640625 2.15625 0.640625q1.21875 0 1.96875 -0.5q0.75 -0.5 0.75 -1.3281097z" fill-rule="nonzero"/><path fill="#000000" fill-opacity="0.0" d="m159.39108 217.95407l262.80313 0.56692505" fill-rule="evenodd"/><path stroke="#424242" stroke-width="3.0" stroke-linejoin="round" stroke-linecap="butt" d="m159.39108 217.95407l244.80319 0.52809143" fill-rule="evenodd"/><path fill="#424242" stroke="#424242" stroke-width="3.0" stroke-linecap="butt" d="m404.1836 223.43735l13.624939 -4.925812l-13.603577 -4.984558z" fill-rule="evenodd"/><path fill="#000000" fill-opacity="0.0" d="m160.39896 217.95407l-1.0078735 -212.40945" fill-rule="evenodd"/><path stroke="#424242" stroke-width="3.0" stroke-linejoin="round" stroke-linecap="butt" d="m160.39896 217.95407l-0.9224701 -194.40965" fill-rule="evenodd"/><path fill="#424242" stroke="#424242" stroke-width="3.0" stroke-linecap="butt" d="m164.43163 23.520905l-5.019745 -13.590628l-4.8905334 13.637651z" fill-rule="evenodd"/><path fill="#000000" fill-opacity="0.0" d="m183.83464 74.56431c3.7458496 12.693787 16.024063 59.202965 22.475067 76.16273c6.451004 16.959747 11.340775 19.353012 16.230972 25.595795c4.8901978 6.2427826 9.676727 10.612427 13.110245 11.860901c3.4335022 1.2484589 5.305771 -5.202545 7.490814 -4.3700867c2.185028 0.8324585 3.8503876 8.655731 5.6194153 9.364838c1.7690277 0.7090912 3.6421661 -5.213913 4.994751 -5.1102448c1.3525848 0.10368347 1.8722687 9.666672 3.1207428 5.7322845c1.2484741 -3.9343872 2.4973755 -25.469818 4.370056 -29.338577c1.8727112 -3.8687744 5.305786 6.2300873 6.86615 6.1259766c1.5603638 -0.10411072 1.2475891 -8.311462 2.4960632 -6.750656c1.2484741 1.5608063 3.43396 12.786087 4.994751 16.115494c1.5608215 3.3293915 2.913391 3.548996 4.3700867 3.8608856c1.4566956 0.3119049 2.7051697 -1.989502 4.3700867 -1.989502c1.664917 0 3.8503723 2.5944977 5.6194153 1.989502c1.7690125 -0.60498047 3.4339294 -8.220474 4.994751 -5.6194153c1.560791 2.6010437 2.3932495 17.707352 4.3700867 21.225723c1.9768066 3.5183716 5.8263245 -0.73973083 7.490814 -0.115493774c1.6644592 0.62423706 1.2475891 3.9650116 2.4960632 3.8609009c1.2484436 -0.10411072 3.6421509 -0.4085846 4.994751 -4.485565c1.3525696 -4.076996 1.9763794 -17.602798 3.1207275 -19.97638c1.1443481 -2.373581 2.3928223 5.734909 3.7453918 5.734909c1.3526001 0 3.1216125 -5.734909 4.3700867 -5.734909c1.2484741 0 2.0800476 8.231842 3.1207275 5.734909c1.0406799 -2.4969482 2.082672 -18.531494 3.1233826 -20.716537c1.0406799 -2.1850433 1.9763794 7.1902924 3.1207275 7.6062927c1.1443481 0.41601562 2.2886963 -5.318451 3.7453918 -5.1102295c1.4566956 0.20822144 3.5380554 0.7217865 4.994751 6.3595734c1.4566956 5.637802 2.6010742 23.741043 3.7454224 27.467194c1.1443481 3.7261658 1.8722534 -5.1102295 3.1207275 -5.1102295c1.2484741 0 2.8092651 4.590103 4.3700867 5.1102295c1.560791 0.52012634 3.329834 1.4632568 4.994751 -1.989502c1.664917 -3.4527588 3.2261658 -15.937012 4.994751 -18.727036c1.7685852 -2.7900238 3.7440796 1.778656 5.616791 1.9868774c1.8727112 0.20822144 3.8504028 -0.32151794 5.6194153 -0.73753357c1.769043 -0.41600037 4.1622925 -1.4654388 4.994751 -1.7585297" fill-rule="evenodd"/><path stroke="#0277bd" stroke-width="3.0" stroke-linejoin="round" stroke-linecap="butt" d="m183.83464 74.56431c3.7458496 12.693787 16.024063 59.202965 22.475067 76.16273c6.451004 16.959747 11.340775 19.353012 16.230972 25.595795c4.8901978 6.2427826 9.676727 10.612427 13.110245 11.860901c3.4335022 1.2484589 5.305771 -5.202545 7.490814 -4.3700867c2.185028 0.8324585 3.8503876 8.655731 5.6194153 9.364838c1.7690277 0.7090912 3.6421661 -5.213913 4.994751 -5.1102448c1.3525848 0.10368347 1.8722687 9.666672 3.1207428 5.7322845c1.2484741 -3.9343872 2.4973755 -25.469818 4.370056 -29.338577c1.8727112 -3.8687744 5.305786 6.2300873 6.86615 6.1259766c1.5603638 -0.10411072 1.2475891 -8.311462 2.4960632 -6.750656c1.2484741 1.5608063 3.43396 12.786087 4.994751 16.115494c1.5608215 3.3293915 2.913391 3.548996 4.3700867 3.8608856c1.4566956 0.3119049 2.7051697 -1.989502 4.3700867 -1.989502c1.664917 0 3.8503723 2.5944977 5.6194153 1.989502c1.7690125 -0.60498047 3.4339294 -8.220474 4.994751 -5.6194153c1.560791 2.6010437 2.3932495 17.707352 4.3700867 21.225723c1.9768066 3.5183716 5.8263245 -0.73973083 7.490814 -0.115493774c1.6644592 0.62423706 1.2475891 3.9650116 2.4960632 3.8609009c1.2484436 -0.10411072 3.6421509 -0.4085846 4.994751 -4.485565c1.3525696 -4.076996 1.9763794 -17.602798 3.1207275 -19.97638c1.1443481 -2.373581 2.3928223 5.734909 3.7453918 5.734909c1.3526001 0 3.1216125 -5.734909 4.3700867 -5.734909c1.2484741 0 2.0800476 8.231842 3.1207275 5.734909c1.0406799 -2.4969482 2.082672 -18.531494 3.1233826 -20.716537c1.0406799 -2.1850433 1.9763794 7.1902924 3.1207275 7.6062927c1.1443481 0.41601562 2.2886963 -5.318451 3.7453918 -5.1102295c1.4566956 0.20822144 3.5380554 0.7217865 4.994751 6.3595734c1.4566956 5.637802 2.6010742 23.741043 3.7454224 27.467194c1.1443481 3.7261658 1.8722534 -5.1102295 3.1207275 -5.1102295c1.2484741 0 2.8092651 4.590103 4.3700867 5.1102295c1.560791 0.52012634 3.329834 1.4632568 4.994751 -1.989502c1.664917 -3.4527588 3.2261658 -15.937012 4.994751 -18.727036c1.7685852 -2.7900238 3.7440796 1.778656 5.616791 1.9868774c1.8727112 0.20822144 3.8504028 -0.32151794 5.6194153 -0.73753357c1.769043 -0.41600037 4.1622925 -1.4654388 4.994751 -1.7585297" fill-rule="evenodd"/></g></svg>