<svg version="1.1" viewBox="0.0 0.0 582.0 268.0" fill="none" stroke="none" stroke-linecap="square" stroke-miterlimit="10" xmlns:xlink="http://www.w3.org/1999/xlink" xmlns="http://www.w3.org/2000/svg"><clipPath id="p.0"><path d="m0 0l582.0 0l0 268.0l-582.0 0l0 -268.0z" clip-rule="nonzero"/></clipPath><g clip-path="url(#p.0)"><path fill="#000000" fill-opacity="0.0" d="m0 0l582.0 0l0 268.0l-582.0 0z" fill-rule="evenodd"/><path fill="#000000" fill-opacity="0.0" d="m111.28609 175.63649l0 -73.54331l31.181107 0l0 73.54331z" fill-rule="evenodd"/><path fill="#000000" d="m141.48235 162.38649l0 -8.078125l1.84375 0l0 10.34375l-17.062508 0l0 -2.265625l15.218758 0zm-4.609375 -9.7265625q-1.875 0 -3.359375 -0.734375q-1.484375 -0.734375 -2.296875 -2.03125q-0.8125 -1.3125 -0.8125 -3.0q0 -2.578125 1.796875 -4.171875q1.796875 -1.609375 4.765625 -1.609375l0.15625 0q1.859375 0 3.328125 0.71875q1.46875 0.703125 2.296875 2.015625q0.8125 1.3125 0.8125 3.03125q0 2.578125 -1.796875 4.1875q-1.796875 1.59375 -4.75 1.59375l-0.140625 0zm0.25 -2.1875q2.109375 0 3.390625 -0.96875q1.28125 -0.984375 1.28125 -2.625q0 -1.65625 -1.296875 -2.625q-1.296875 -0.96875 -3.625 -0.96875q-2.09375 0 -3.390625 0.984375q-1.296875 0.984375 -1.296875 2.625q0 1.609375 1.28125 2.59375q1.28125 0.984375 3.65625 0.984375zm2.84375 -19.46875q-0.890625 0 -1.375 0.671875q-0.484375 0.65625 -0.828125 2.3125q-0.359375 1.640625 -0.84375 2.609375q-0.5 0.96875 -1.171875 1.4375q-0.6875 0.453125 -1.625 0.453125q-1.5625 0 -2.640625 -1.3125q-1.078125 -1.328125 -1.078125 -3.375q0 -2.15625 1.125 -3.5q1.109375 -1.34375 2.84375 -1.34375l0 2.1875q-0.890625 0 -1.53125 0.75q-0.65625 0.75 -0.65625 1.90625q0 1.1875 0.515625 1.859375q0.515625 0.65625 1.359375 0.65625q0.78125 0 1.1875 -0.609375q0.390625 -0.625 0.75 -2.25q0.359375 -1.625 0.875 -2.625q0.5 -1.015625 1.21875 -1.5q0.703125 -0.484375 1.71875 -0.484375q1.703125 0 2.734375 1.359375q1.015625 1.359375 1.015625 3.515625q0 1.53125 -0.53125 2.703125q-0.546875 1.171875 -1.515625 1.84375q-0.96875 0.65625 -2.09375 0.65625l0 -2.171875q1.09375 -0.0625 1.734375 -0.875q0.640625 -0.8125 0.640625 -2.15625q0 -1.21875 -0.5 -1.96875q-0.5 -0.75 -1.328125 -0.75zm0 -12.375008q-0.890625 0 -1.375 0.671875q-0.484375 0.65625 -0.828125 2.3125q-0.359375 1.640625 -0.84375 2.609375q-0.5 0.96875 -1.171875 1.4375q-0.6875 0.453125 -1.625 0.453125q-1.5625 0 -2.640625 -1.3125q-1.078125 -1.328125 -1.078125 -3.375q0 -2.15625 1.125 -3.5q1.109375 -1.34375 2.84375 -1.34375l0 2.1875q-0.890625 0 -1.53125 0.75q-0.65625 0.75 -0.65625 1.90625q0 1.1875 0.515625 1.859375q0.515625 0.65625 1.359375 0.65625q0.78125 0 1.1875 -0.609375q0.390625 -0.625 0.75 -2.25q0.359375 -1.625 0.875 -2.625q0.5 -1.015625 1.21875 -1.5q0.703125 -0.484375 1.71875 -0.484375q1.703125 0 2.734375 1.359375q1.015625 1.359375 1.015625 3.515625q0 1.53125 -0.53125 2.703125q-0.546875 1.171875 -1.515625 1.84375q-0.96875 0.65625 -2.09375 0.65625l0 -2.171875q1.09375 -0.0625 1.734375 -0.875q0.640625 -0.8125 0.640625 -2.15625q0 -1.21875 -0.5 -1.96875q-0.5 -0.75 -1.328125 -0.75z" fill-rule="nonzero"/><path fill="#000000" fill-opacity="0.0" d="m234.10498 227.27428l83.08661 0l0 31.181107l-83.08661 0z" fill-rule="evenodd"/><path fill="#000000" d="m250.1206 251.70491q-2.90625 -0.828125 -4.21875 -2.03125q-1.3125 -1.21875 -1.3125 -3.0q0 -2.015625 1.609375 -3.328125q1.609375 -1.328125 4.1875 -1.328125q1.75 0 3.125 0.6875q1.390625 0.671875 2.140625 1.875q0.75 1.1875 0.75 2.609375l-2.25 0q0 -1.546875 -0.984375 -2.4375q-0.984375 -0.890625 -2.78125 -0.890625q-1.671875 0 -2.609375 0.734375q-0.921875 0.734375 -0.921875 2.03125q0 1.046875 0.875 1.765625q0.890625 0.71875 3.015625 1.328125q2.140625 0.59375 3.328125 1.3125q1.203125 0.71875 1.78125 1.6875q0.59375 0.953125 0.59375 2.25q0 2.0781097 -1.625 3.3281097q-1.609375 1.25 -4.328125 1.25q-1.75 0 -3.28125 -0.671875q-1.515625 -0.671875 -2.34375 -1.84375q-0.828125 -1.1718597 -0.828125 -2.6718597l2.265625 0q0 1.546875 1.140625 2.4531097q1.140625 0.890625 3.046875 0.890625q1.78125 0 2.734375 -0.71875q0.953125 -0.734375 0.953125 -1.9843597q0 -1.25 -0.890625 -1.9375q-0.875 -0.6875 -3.171875 -1.359375zm11.800781 -8.140625l0 3.0625l2.375 0l0 1.6875l-2.375 0l0 7.8593597q0 0.765625 0.3125 1.140625q0.328125 0.375 1.09375 0.375q0.375 0 1.03125 -0.140625l0 1.765625q-0.859375 0.234375 -1.671875 0.234375q-1.453125 0 -2.1875 -0.875q-0.734375 -0.890625 -0.734375 -2.5l0 -7.8593597l-2.3125 0l0 -1.6875l2.3125 0l0 -3.0625l2.15625 0zm10.167969 15.98436q-2.578125 0 -4.203125 -1.6875q-1.609375 -1.703125 -1.609375 -4.5312347l0 -0.40625q0 -1.890625 0.71875 -3.359375q0.71875 -1.484375 2.015625 -2.328125q1.296875 -0.84375 2.8125 -0.84375q2.46875 0 3.828125 1.640625q1.375 1.625 1.375 4.65625l0 0.90625l-8.578125 0q0.046875 1.875 1.09375 3.0312347q1.046875 1.15625 2.65625 1.15625q1.15625 0 1.953125 -0.46875q0.796875 -0.46875 1.390625 -1.25l1.328125 1.03125q-1.59375 2.453125 -4.78125 2.453125zm-0.265625 -11.374985q-1.3125 0 -2.203125 0.96875q-0.890625 0.953125 -1.109375 2.671875l6.359375 0l0 -0.171875q-0.09375 -1.640625 -0.890625 -2.546875q-0.796875 -0.921875 -2.15625 -0.921875zm18.433594 4.9375q0 2.8906097 -1.328125 4.6718597q-1.328125 1.765625 -3.59375 1.765625q-2.296875 0 -3.625 -1.46875l0 6.109375l-2.171875 0l0 -17.562485l1.984375 0l0.109375 1.40625q1.3125 -1.640625 3.671875 -1.640625q2.28125 0 3.609375 1.734375q1.34375 1.71875 1.34375 4.78125l0 0.203125zm-2.171875 -0.25q0 -2.140625 -0.921875 -3.375q-0.90625 -1.25 -2.5 -1.25q-1.96875 0 -2.953125 1.75l0 6.0624847q0.96875 1.734375 2.96875 1.734375q1.5625 0 2.484375 -1.234375q0.921875 -1.2499847 0.921875 -3.6874847zm12.308594 3.09375q0 -0.890625 -0.671875 -1.375q-0.65625 -0.484375 -2.3125 -0.828125q-1.640625 -0.359375 -2.609375 -0.84375q-0.96875 -0.5 -1.4375 -1.171875q-0.453125 -0.6875 -0.453125 -1.625q0 -1.5625 1.3125 -2.640625q1.328125 -1.078125 3.375 -1.078125q2.15625 0 3.5 1.125q1.34375 1.109375 1.34375 2.84375l-2.1875 0q0 -0.890625 -0.75 -1.53125q-0.75 -0.65625 -1.90625 -0.65625q-1.1875 0 -1.859375 0.515625q-0.65625 0.515625 -0.65625 1.359375q0 0.78125 0.609375 1.1875q0.625 0.390625 2.25 0.75q1.625 0.359375 2.625 0.875q1.015625 0.5 1.5 1.21875q0.484375 0.703125 0.484375 1.71875q0 1.7031097 -1.359375 2.7343597q-1.359375 1.015625 -3.515625 1.015625q-1.53125 0 -2.703125 -0.53125q-1.171875 -0.546875 -1.84375 -1.515625q-0.65625 -0.96875 -0.65625 -2.0937347l2.171875 0q0.0625 1.0937347 0.875 1.7343597q0.8125 0.640625 2.15625 0.640625q1.21875 0 1.96875 -0.5q0.75 -0.5 0.75 -1.3281097z" fill-rule="nonzero"/><path fill="#000000" fill-opacity="0.0" d="m159.39108 217.95407l262.80313 0.56692505" fill-rule="evenodd"/><path stroke="#424242" stroke-width="3.0" stroke-linejoin="round" stroke-linecap="butt" d="m159.39108 217.95407l244.80319 0.52809143" fill-rule="evenodd"/><path fill="#424242" stroke="#424242" stroke-width="3.0" stroke-linecap="butt" d="m404.1836 223.43735l13.624939 -4.925812l-13.603577 -4.984558z" fill-rule="evenodd"/><path fill="#000000" fill-opacity="0.0" d="m160.39896 217.95407l-1.0078735 -212.40945" fill-rule="evenodd"/><path stroke="#424242" stroke-width="3.0" stroke-linejoin="round" stroke-linecap="butt" d="m160.39896 217.95407l-0.9224701 -194.40965" fill-rule="evenodd"/><path fill="#424242" stroke="#424242" stroke-width="3.0" stroke-linecap="butt" d="m164.43163 23.520905l-5.019745 -13.590628l-4.8905334 13.637651z" fill-rule="evenodd"/><path fill="#000000" fill-opacity="0.0" d="m182.99738 31.29265c2.913391 8.636045 9.572617 35.064743 17.480316 51.816277c7.9076996 16.751534 16.751968 35.999123 29.965881 48.69291c13.213913 12.693787 32.150055 19.562119 49.317596 27.469818c17.167542 7.9076996 32.670593 14.878387 53.687653 19.97638c21.01706 5.097992 60.34558 8.842957 72.4147 10.611542" fill-rule="evenodd"/><path stroke="#0277bd" stroke-width="3.0" stroke-linejoin="round" stroke-linecap="butt" d="m182.99738 31.29265c2.913391 8.636045 9.572617 35.064743 17.480316 51.816277c7.9076996 16.751534 16.751968 35.999123 29.965881 48.69291c13.213913 12.693787 32.150055 19.562119 49.317596 27.469818c17.167542 7.9076996 32.670593 14.878387 53.687653 19.97638c21.01706 5.097992 60.34558 8.842957 72.4147 10.611542" fill-rule="evenodd"/></g></svg>